<svg width="108" height="108" viewBox="0 0 108 108" fill="none" xmlns="http://www.w3.org/2000/svg">
<g filter="url(#filter0_d_31_31)">
<rect x="4" width="100" height="100" rx="15" fill="#47184D"/>
<path d="M47.7071 64.9207C48.7412 64.5824 50.606 63.1813 53.3015 60.7172C54.289 61.4716 55.1589 62.4328 55.9113 63.6008C54.5767 65.182 53.198 66.5252 51.775 67.6303C50.3725 68.6951 49.3367 69.3369 48.6676 69.5557C44.9875 70.7594 41.8561 70.6558 39.2734 69.2447C36.7212 67.8237 34.8333 65.2427 33.6097 61.5018C32.3762 57.7304 32.3292 54.3958 33.4688 51.4979C34.5985 48.5696 37.0186 46.4987 40.7291 45.285C43.6793 44.3201 46.2433 44.542 48.4212 45.9507C50.5991 47.3595 52.1904 49.5998 53.1951 52.6717C53.404 53.3104 53.2778 54.1597 52.8164 55.2196L39.6028 59.289C40.4595 61.7023 41.5225 63.4084 42.7919 64.4072C44.0613 65.4061 45.6997 65.5772 47.7071 64.9207ZM41.557 49.2059C40.4013 49.5839 39.3962 50.1652 38.5417 50.9497C38.3197 52.6384 38.3214 54.1361 38.5468 55.4428C40.8892 54.5756 43.561 53.6343 46.5621 52.6191C45.4152 49.6274 43.7469 48.4897 41.557 49.2059Z" fill="#6EC12D"/>
<path d="M63.6551 62.344C63.3991 62.344 63.0471 62.264 62.5991 62.104C62.1511 61.976 61.7991 61.752 61.5431 61.432C60.6791 59.672 59.7991 57.592 58.9031 55.192C58.0391 52.76 57.2071 50.152 56.4071 47.368C55.6391 44.584 54.9671 41.752 54.3911 38.872C53.8471 35.96 53.4631 33.16 53.2391 30.472L57.4151 28.504L58.6631 29.272C58.5991 30.072 58.5511 30.888 58.5191 31.72C58.4871 32.52 58.4711 33.32 58.4711 34.12C58.4711 38.504 58.9031 42.744 59.7671 46.84C60.6311 50.904 61.7511 54.984 63.1271 59.08C63.3831 57.448 63.7511 55.624 64.2311 53.608C64.7431 51.56 65.3351 49.432 66.0071 47.224C66.6791 45.016 67.3991 42.824 68.1671 40.648C68.9671 38.472 69.7831 36.424 70.6151 34.504C71.4791 32.584 72.3271 30.888 73.1591 29.416C73.4471 29.16 73.8311 28.952 74.3111 28.792C74.8231 28.6 75.2231 28.504 75.5111 28.504C75.6391 28.504 75.7031 28.584 75.7031 28.744C75.7031 29.032 75.3991 29.88 74.7911 31.288C74.2151 32.696 73.4791 34.696 72.5831 37.288C71.7191 39.848 70.8071 43.016 69.8471 46.792C68.9191 50.568 68.1191 54.984 67.4471 60.04L63.6551 62.344Z" fill="white"/>
</g>
<defs>
<filter id="filter0_d_31_31" x="0" y="0" width="108" height="108" filterUnits="userSpaceOnUse" color-interpolation-filters="sRGB">
<feFlood flood-opacity="0" result="BackgroundImageFix"/>
<feColorMatrix in="SourceAlpha" type="matrix" values="0 0 0 0 0 0 0 0 0 0 0 0 0 0 0 0 0 0 127 0" result="hardAlpha"/>
<feOffset dy="4"/>
<feGaussianBlur stdDeviation="2"/>
<feComposite in2="hardAlpha" operator="out"/>
<feColorMatrix type="matrix" values="0 0 0 0 0 0 0 0 0 0 0 0 0 0 0 0 0 0 0.25 0"/>
<feBlend mode="normal" in2="BackgroundImageFix" result="effect1_dropShadow_31_31"/>
<feBlend mode="normal" in="SourceGraphic" in2="effect1_dropShadow_31_31" result="shape"/>
</filter>
</defs>
</svg>
