<svg width="185" height="106" viewBox="0 0 185 106" fill="none" xmlns="http://www.w3.org/2000/svg">
<g filter="url(#filter0_d_24_29)">
<rect x="4" width="177" height="98" rx="15" fill="#47184D"/>
<path d="M72.4465 28.9853L62.0305 61.6253H57.8065L47.3425 28.9853H51.7585L56.9425 45.5453L60.0625 56.0093L63.2305 45.4973L68.3185 28.9853H72.4465ZM92.9444 48.2813V51.1613C92.9444 54.5533 92.0644 57.2253 90.3044 59.1773C88.5764 61.1293 86.0964 62.1053 82.8644 62.1053C79.6644 62.1053 77.1844 61.1293 75.4244 59.1773C73.6644 57.2253 72.7844 54.5533 72.7844 51.1613V48.2813C72.7844 44.9533 73.6484 42.3133 75.3764 40.3613C77.1364 38.3773 79.6324 37.3853 82.8644 37.3853C86.0964 37.3853 88.5764 38.3773 90.3044 40.3613C92.0644 42.3133 92.9444 44.9533 92.9444 48.2813ZM88.8644 48.2813C88.8644 46.0093 88.3524 44.2333 87.3284 42.9533C86.3044 41.6413 84.8164 40.9853 82.8644 40.9853C80.9444 40.9853 79.4564 41.6413 78.4004 42.9533C77.3764 44.2333 76.8644 46.0093 76.8644 48.2813V51.1613C76.8644 53.5293 77.3764 55.3533 78.4004 56.6333C79.4564 57.9133 80.9444 58.5533 82.8644 58.5533C84.8164 58.5533 86.3044 57.9133 87.3284 56.6333C88.3524 55.3533 88.8644 53.5293 88.8644 51.1613V48.2813ZM110.753 60.7613C108.961 61.6573 107.057 62.1053 105.041 62.1053C103.313 62.1053 101.953 61.7533 100.961 61.0493C100.001 60.3453 99.3132 59.4013 98.8972 58.2173C98.5132 57.0333 98.3212 55.7213 98.3212 54.2813V41.3213H94.1932V37.8653H98.3212V31.2413H102.257V37.8653H110.033V41.3213H102.257V54.1373C102.257 55.8013 102.529 56.9533 103.073 57.5933C103.649 58.2013 104.529 58.5053 105.713 58.5053C106.289 58.5053 106.881 58.4413 107.489 58.3133C108.129 58.1533 108.817 57.8973 109.553 57.5453L110.753 60.7613ZM117.708 32.0573H113.292V27.6413H117.708V32.0573ZM117.468 61.6253H113.532V37.8653H117.468V61.6253ZM134.977 41.0813C134.081 41.0813 133.025 41.3053 131.809 41.7533C130.625 42.2013 129.185 43.1133 127.489 44.4893V61.6253H123.553V37.8653H127.297V41.1773C128.993 39.7373 130.529 38.7453 131.905 38.2013C133.313 37.6573 134.657 37.3853 135.937 37.3853C138.145 37.3853 139.825 38.0893 140.977 39.4973C142.161 40.8733 142.753 42.8413 142.753 45.4013V61.6253H138.817V45.9773C138.817 42.7133 137.537 41.0813 134.977 41.0813ZM167.583 64.6013C167.583 66.9373 166.623 68.8093 164.703 70.2173C162.815 71.6253 160.207 72.3293 156.879 72.3293C155.215 72.3293 153.471 72.1053 151.647 71.6573C149.855 71.2093 148.159 70.4893 146.559 69.4973L147.903 66.4253C149.503 67.3213 151.039 67.9453 152.511 68.2973C154.015 68.6813 155.471 68.8733 156.879 68.8733C159.055 68.8733 160.735 68.5213 161.919 67.8173C163.103 67.1133 163.695 66.1693 163.695 64.9853C163.695 64.1213 163.407 63.4493 162.831 62.9693C162.255 62.5213 161.327 62.2973 160.047 62.2973H154.527C152.447 62.2973 150.943 61.8013 150.015 60.8093C149.087 59.8173 148.623 58.7293 148.623 57.5453C148.623 56.7133 148.815 55.8973 149.199 55.0973C149.583 54.2653 150.127 53.4493 150.831 52.6493C149.711 51.9773 148.815 51.0653 148.143 49.9133C147.471 48.7293 147.135 47.3053 147.135 45.6413C147.135 43.8173 147.519 42.2973 148.287 41.0813C149.087 39.8653 150.143 38.9533 151.455 38.3453C152.767 37.7053 154.239 37.3853 155.871 37.3853H156.687C157.807 37.3853 158.831 37.5453 159.759 37.8653H168.303V41.3693L163.119 40.6493C163.791 41.2253 164.335 41.9453 164.751 42.8093C165.167 43.6413 165.375 44.6653 165.375 45.8813C165.375 47.6093 164.975 49.0653 164.175 50.2493C163.407 51.4333 162.367 52.3453 161.055 52.9853C159.743 53.5933 158.287 53.8973 156.687 53.8973H155.871C155.455 53.8973 155.055 53.8813 154.671 53.8493C154.287 53.7853 153.903 53.7213 153.519 53.6573C152.591 54.6813 152.127 55.6893 152.127 56.6813C152.127 57.9613 153.023 58.6013 154.815 58.6013H160.191C162.495 58.6013 164.303 59.1133 165.615 60.1373C166.927 61.1613 167.583 62.6493 167.583 64.6013ZM156.687 50.4893C157.935 50.4893 159.039 50.0893 159.999 49.2893C160.959 48.4893 161.439 47.2733 161.439 45.6413C161.439 44.0413 160.959 42.8413 159.999 42.0413C159.039 41.2093 157.935 40.7933 156.687 40.7933H155.871C154.591 40.7933 153.471 41.2093 152.511 42.0413C151.551 42.8413 151.071 44.0413 151.071 45.6413C151.071 47.2733 151.551 48.4893 152.511 49.2893C153.471 50.0893 154.591 50.4893 155.871 50.4893H156.687Z" fill="white"/>
<path d="M43.3715 61.6451C44.4055 61.3069 46.2704 59.9057 48.9659 57.4416C49.9534 58.1961 50.8233 59.1572 51.5756 60.3252C50.2411 61.9065 48.8623 63.2496 47.4394 64.3547C46.0369 65.4195 45.0011 66.0613 44.332 66.2802C40.6518 67.4839 37.5204 67.3802 34.9378 65.9691C32.3856 64.5482 30.4977 61.9672 29.2741 58.2262C28.0405 54.4548 27.9936 51.1202 29.1332 48.2223C30.2628 45.2941 32.6829 43.2231 36.3935 42.0094C39.3437 41.0445 41.9077 41.2664 44.0856 42.6752C46.2634 44.0839 47.8547 46.3242 48.8595 49.3961C49.0684 50.0348 48.9422 50.8841 48.4808 51.9441L35.2672 56.0135C36.1238 58.4267 37.1869 60.1328 38.4563 61.1316C39.7257 62.1305 41.3641 62.3017 43.3715 61.6451ZM37.2214 45.9303C36.0657 46.3084 35.0606 46.8896 34.2061 47.6741C33.9841 49.3628 33.9858 50.8605 34.2111 52.1672C36.5536 51.3 39.2254 50.3588 42.2265 49.3435C41.0796 46.3518 39.4113 45.2141 37.2214 45.9303Z" fill="#6EC12D"/>
</g>
<defs>
<filter id="filter0_d_24_29" x="0" y="0" width="185" height="106" filterUnits="userSpaceOnUse" color-interpolation-filters="sRGB">
<feFlood flood-opacity="0" result="BackgroundImageFix"/>
<feColorMatrix in="SourceAlpha" type="matrix" values="0 0 0 0 0 0 0 0 0 0 0 0 0 0 0 0 0 0 127 0" result="hardAlpha"/>
<feOffset dy="4"/>
<feGaussianBlur stdDeviation="2"/>
<feComposite in2="hardAlpha" operator="out"/>
<feColorMatrix type="matrix" values="0 0 0 0 0 0 0 0 0 0 0 0 0 0 0 0 0 0 0.25 0"/>
<feBlend mode="normal" in2="BackgroundImageFix" result="effect1_dropShadow_24_29"/>
<feBlend mode="normal" in="SourceGraphic" in2="effect1_dropShadow_24_29" result="shape"/>
</filter>
</defs>
</svg>
