<svg width="1917" height="289" viewBox="0 0 1917 289" fill="none" xmlns="http://www.w3.org/2000/svg">
<rect width="1917" height="289" fill="#BFB0C5"/>
<g filter="url(#filter0_d_2_16)">
<path d="M321.617 89.64C319.355 89.64 317.222 89.32 315.217 88.68C313.211 88.04 311.377 87.08 309.713 85.8C308.049 84.52 306.577 82.9413 305.297 81.064L308.753 77.224C310.758 80.0827 312.806 82.088 314.897 83.24C317.03 84.392 319.419 84.968 322.065 84.968C323.985 84.968 325.734 84.648 327.313 84.008C328.891 83.368 330.129 82.472 331.025 81.32C331.921 80.168 332.369 78.8453 332.369 77.352C332.369 76.3707 332.198 75.496 331.857 74.728C331.558 73.96 331.089 73.2773 330.449 72.68C329.809 72.0827 329.019 71.5493 328.081 71.08C327.142 70.6107 326.054 70.184 324.817 69.8C323.622 69.416 322.278 69.032 320.785 68.648C318.609 68.136 316.689 67.5387 315.025 66.856C313.403 66.1307 312.017 65.256 310.865 64.232C309.755 63.208 308.902 62.0347 308.305 60.712C307.75 59.3467 307.473 57.7467 307.473 55.912C307.473 54.1627 307.835 52.5413 308.561 51.048C309.329 49.5547 310.374 48.2747 311.697 47.208C313.019 46.0987 314.577 45.2453 316.369 44.648C318.161 44.0507 320.081 43.752 322.129 43.752C324.433 43.752 326.481 44.072 328.273 44.712C330.107 45.3093 331.729 46.2053 333.137 47.4C334.545 48.5947 335.761 50.024 336.785 51.688L333.265 55.144C332.369 53.736 331.345 52.52 330.193 51.496C329.083 50.472 327.846 49.704 326.481 49.192C325.158 48.6373 323.686 48.36 322.065 48.36C320.187 48.36 318.523 48.68 317.073 49.32C315.665 49.96 314.555 50.856 313.745 52.008C312.934 53.1173 312.529 54.3973 312.529 55.848C312.529 56.9147 312.721 57.8747 313.105 58.728C313.489 59.5387 314.086 60.264 314.897 60.904C315.75 61.5013 316.838 62.056 318.161 62.568C319.526 63.0373 321.147 63.4853 323.025 63.912C325.243 64.424 327.227 65.0427 328.977 65.768C330.769 66.4933 332.283 67.368 333.521 68.392C334.801 69.3733 335.761 70.5253 336.401 71.848C337.083 73.1707 337.425 74.6853 337.425 76.392C337.425 79.0373 336.763 81.3627 335.441 83.368C334.118 85.3307 332.262 86.8667 329.873 87.976C327.526 89.0853 324.774 89.64 321.617 89.64ZM360.362 89.64C357.034 89.64 354.069 88.8933 351.466 87.4C348.906 85.9067 346.88 83.8373 345.386 81.192C343.936 78.5467 343.21 75.5387 343.21 72.168C343.21 68.84 343.936 65.8747 345.386 63.272C346.88 60.6693 348.906 58.6213 351.466 57.128C354.069 55.6347 357.034 54.888 360.362 54.888C363.648 54.888 366.57 55.6347 369.13 57.128C371.733 58.6213 373.76 60.6693 375.21 63.272C376.704 65.8747 377.45 68.84 377.45 72.168C377.45 75.5387 376.704 78.5467 375.21 81.192C373.76 83.8373 371.733 85.9067 369.13 87.4C366.57 88.8933 363.648 89.64 360.362 89.64ZM360.362 85.096C362.709 85.096 364.8 84.5413 366.634 83.432C368.469 82.28 369.898 80.744 370.922 78.824C371.946 76.8613 372.458 74.6427 372.458 72.168C372.458 69.6933 371.946 67.496 370.922 65.576C369.898 63.656 368.469 62.1627 366.634 61.096C364.8 59.9867 362.709 59.432 360.362 59.432C358.016 59.432 355.904 59.9867 354.026 61.096C352.192 62.1627 350.741 63.6773 349.674 65.64C348.65 67.56 348.16 69.736 348.202 72.168C348.16 74.6427 348.65 76.8613 349.674 78.824C350.741 80.744 352.192 82.28 354.026 83.432C355.904 84.5413 358.016 85.096 360.362 85.096ZM384.389 89V55.592H389.189L389.317 63.208L388.357 63.528C388.699 62.248 389.253 61.096 390.021 60.072C390.832 59.0053 391.792 58.088 392.901 57.32C394.011 56.552 395.227 55.976 396.549 55.592C397.872 55.1653 399.259 54.952 400.709 54.952C402.459 54.952 404.016 55.2507 405.381 55.848C406.789 56.4027 407.963 57.384 408.901 58.792C409.883 60.1573 410.629 61.9707 411.141 64.232L409.989 63.656L410.437 62.568C410.864 61.5867 411.483 60.648 412.293 59.752C413.147 58.8133 414.107 57.9813 415.173 57.256C416.283 56.5307 417.477 55.976 418.757 55.592C420.08 55.1653 421.424 54.952 422.789 54.952C425.136 54.952 427.12 55.464 428.741 56.488C430.363 57.4693 431.579 58.984 432.389 61.032C433.243 63.08 433.669 65.6827 433.669 68.84V89H428.741V69.096C428.741 66.8773 428.464 65.064 427.909 63.656C427.355 62.248 426.523 61.2027 425.413 60.52C424.347 59.7947 422.981 59.432 421.317 59.432C419.867 59.432 418.523 59.688 417.285 60.2C416.091 60.6693 415.045 61.352 414.149 62.248C413.296 63.1013 412.613 64.0827 412.101 65.192C411.632 66.3013 411.397 67.496 411.397 68.776V89H406.533V69.032C406.533 66.8987 406.235 65.128 405.637 63.72C405.083 62.312 404.251 61.2453 403.141 60.52C402.032 59.7947 400.667 59.432 399.045 59.432C397.637 59.432 396.336 59.688 395.141 60.2C393.947 60.6693 392.901 61.3307 392.005 62.184C391.152 63.0373 390.469 64.0187 389.957 65.128C389.488 66.2373 389.253 67.432 389.253 68.712V89H384.389ZM457.55 89.64C454.222 89.64 451.256 88.8933 448.654 87.4C446.094 85.9067 444.067 83.8373 442.574 81.192C441.123 78.5467 440.398 75.5387 440.398 72.168C440.398 68.84 441.123 65.8747 442.574 63.272C444.067 60.6693 446.094 58.6213 448.654 57.128C451.256 55.6347 454.222 54.888 457.55 54.888C460.835 54.888 463.758 55.6347 466.318 57.128C468.92 58.6213 470.947 60.6693 472.398 63.272C473.891 65.8747 474.638 68.84 474.638 72.168C474.638 75.5387 473.891 78.5467 472.398 81.192C470.947 83.8373 468.92 85.9067 466.318 87.4C463.758 88.8933 460.835 89.64 457.55 89.64ZM457.55 85.096C459.896 85.096 461.987 84.5413 463.822 83.432C465.656 82.28 467.086 80.744 468.11 78.824C469.134 76.8613 469.646 74.6427 469.646 72.168C469.646 69.6933 469.134 67.496 468.11 65.576C467.086 63.656 465.656 62.1627 463.822 61.096C461.987 59.9867 459.896 59.432 457.55 59.432C455.203 59.432 453.091 59.9867 451.214 61.096C449.379 62.1627 447.928 63.6773 446.862 65.64C445.838 67.56 445.347 69.736 445.39 72.168C445.347 74.6427 445.838 76.8613 446.862 78.824C447.928 80.744 449.379 82.28 451.214 83.432C453.091 84.5413 455.203 85.096 457.55 85.096ZM492.585 89.64C489.726 89.64 487.166 89.1067 484.905 88.04C482.643 86.9733 480.851 85.5653 479.529 83.816L482.921 80.872C484.158 82.3653 485.609 83.496 487.273 84.264C488.979 85.032 490.878 85.416 492.969 85.416C494.035 85.416 494.995 85.3093 495.849 85.096C496.702 84.84 497.449 84.4773 498.089 84.008C498.729 83.5387 499.219 82.984 499.561 82.344C499.902 81.704 500.073 81 500.073 80.232C500.073 78.824 499.454 77.6507 498.217 76.712C497.662 76.328 496.873 75.944 495.849 75.56C494.825 75.1333 493.587 74.728 492.137 74.344C489.747 73.6613 487.763 72.9787 486.185 72.296C484.606 71.5707 483.369 70.7387 482.473 69.8C481.833 69.032 481.342 68.2 481.001 67.304C480.702 66.408 480.553 65.4267 480.553 64.36C480.553 62.9947 480.83 61.736 481.385 60.584C481.982 59.432 482.793 58.4293 483.817 57.576C484.883 56.68 486.121 56.0187 487.529 55.592C488.979 55.1227 490.537 54.888 492.201 54.888C493.779 54.888 495.337 55.1013 496.873 55.528C498.409 55.9547 499.838 56.5733 501.161 57.384C502.483 58.1947 503.614 59.1547 504.553 60.264L501.609 63.464C500.798 62.6107 499.902 61.8427 498.921 61.16C497.939 60.4773 496.894 59.944 495.785 59.56C494.718 59.176 493.609 58.984 492.457 58.984C491.433 58.984 490.473 59.112 489.577 59.368C488.723 59.624 487.977 59.9867 487.337 60.456C486.739 60.8827 486.27 61.416 485.929 62.056C485.63 62.696 485.481 63.4 485.481 64.168C485.481 64.808 485.609 65.384 485.865 65.896C486.121 66.408 486.483 66.856 486.953 67.24C487.55 67.7093 488.382 68.1573 489.449 68.584C490.558 68.968 491.923 69.3733 493.545 69.8C495.422 70.312 497.001 70.8453 498.281 71.4C499.603 71.912 500.691 72.5307 501.545 73.256C502.697 74.1093 503.507 75.0907 503.977 76.2C504.489 77.3093 504.745 78.568 504.745 79.976C504.745 81.8533 504.211 83.5173 503.145 84.968C502.121 86.4187 500.691 87.5707 498.857 88.424C497.022 89.2347 494.931 89.64 492.585 89.64ZM542.043 89.64C539.483 89.64 537.307 89.128 535.515 88.104C533.766 87.0373 532.422 85.5013 531.483 83.496C530.587 81.4907 530.139 78.9947 530.139 76.008V55.592H535.003V75.048C535.003 77.3093 535.302 79.208 535.899 80.744C536.539 82.2373 537.478 83.368 538.715 84.136C539.995 84.904 541.553 85.288 543.387 85.288C544.795 85.288 546.097 85.0533 547.291 84.584C548.486 84.072 549.531 83.3893 550.427 82.536C551.323 81.6827 552.027 80.68 552.539 79.528C553.051 78.376 553.307 77.16 553.307 75.88V55.592H558.107V89H553.371L553.179 81.96L553.947 81.576C553.435 83.0693 552.582 84.4347 551.387 85.672C550.193 86.8667 548.763 87.8267 547.099 88.552C545.478 89.2773 543.793 89.64 542.043 89.64ZM567.453 89V55.592H572.189L572.381 62.568L571.613 62.888C572.04 61.4373 572.872 60.1147 574.109 58.92C575.347 57.7253 576.819 56.7653 578.525 56.04C580.275 55.272 582.067 54.888 583.901 54.888C586.376 54.888 588.445 55.3787 590.109 56.36C591.773 57.3413 593.032 58.856 593.885 60.904C594.739 62.952 595.165 65.5547 595.165 68.712V89H590.301V68.968C590.301 66.7493 590.003 64.936 589.405 63.528C588.851 62.0773 587.976 61.0107 586.781 60.328C585.587 59.6453 584.115 59.3253 582.365 59.368C580.915 59.368 579.571 59.624 578.333 60.136C577.096 60.6053 576.029 61.2667 575.133 62.12C574.237 62.9733 573.533 63.9547 573.021 65.064C572.509 66.1733 572.253 67.368 572.253 68.648V89H569.885C569.587 89 569.245 89 568.861 89C568.477 89 568.008 89 567.453 89ZM617.384 89.64C614.483 89.64 611.859 88.8933 609.512 87.4C607.166 85.864 605.31 83.7947 603.944 81.192C602.579 78.5467 601.896 75.56 601.896 72.232C601.896 68.8613 602.6 65.8747 604.008 63.272C605.416 60.6693 607.294 58.6213 609.64 57.128C612.03 55.6347 614.696 54.888 617.64 54.888C619.39 54.888 621.011 55.144 622.504 55.656C623.998 56.168 625.32 56.8933 626.472 57.832C627.667 58.728 628.648 59.7947 629.416 61.032C630.227 62.2267 630.782 63.528 631.08 64.936L629.672 64.232L629.864 55.592H634.664V89H629.8V80.808L631.08 79.976C630.782 81.256 630.206 82.4933 629.352 83.688C628.499 84.84 627.454 85.864 626.216 86.76C625.022 87.656 623.656 88.36 622.12 88.872C620.627 89.384 619.048 89.64 617.384 89.64ZM618.472 85.032C620.691 85.032 622.675 84.4987 624.424 83.432C626.174 82.3227 627.539 80.808 628.52 78.888C629.544 76.9253 630.056 74.7067 630.056 72.232C630.056 69.7573 629.544 67.56 628.52 65.64C627.539 63.72 626.174 62.2053 624.424 61.096C622.675 59.9867 620.691 59.432 618.472 59.432C616.211 59.432 614.206 59.9867 612.456 61.096C610.75 62.2053 609.384 63.72 608.36 65.64C607.379 67.56 606.888 69.7573 606.888 72.232C606.888 74.664 607.379 76.8613 608.36 78.824C609.342 80.744 610.707 82.2587 612.456 83.368C614.206 84.4773 616.211 85.032 618.472 85.032ZM661.953 103.08V55.592H666.753L666.881 63.72L665.985 63.848C666.369 62.2267 667.201 60.7547 668.481 59.432C669.761 58.0667 671.319 56.9787 673.153 56.168C674.988 55.3573 676.929 54.952 678.977 54.952C681.964 54.952 684.631 55.6987 686.977 57.192C689.367 58.6853 691.265 60.7333 692.673 63.336C694.081 65.9387 694.785 68.9253 694.785 72.296C694.785 75.624 694.103 78.5893 692.737 81.192C691.372 83.7947 689.495 85.864 687.105 87.4C684.716 88.8933 682.028 89.64 679.041 89.64C676.951 89.64 674.967 89.2133 673.089 88.36C671.212 87.5067 669.612 86.3973 668.289 85.032C666.967 83.624 666.092 82.1093 665.665 80.488H666.817V103.08H661.953ZM678.273 85.032C680.535 85.032 682.54 84.4773 684.289 83.368C686.039 82.2587 687.425 80.744 688.449 78.824C689.473 76.904 689.985 74.728 689.985 72.296C689.985 69.8213 689.473 67.624 688.449 65.704C687.425 63.784 686.039 62.2693 684.289 61.16C682.54 60.0507 680.535 59.496 678.273 59.496C676.012 59.496 673.985 60.0507 672.193 61.16C670.444 62.2267 669.057 63.72 668.033 65.64C667.009 67.56 666.497 69.7573 666.497 72.232C666.497 74.7067 667.009 76.904 668.033 78.824C669.057 80.744 670.444 82.2587 672.193 83.368C673.985 84.4773 676.012 85.032 678.273 85.032ZM714.822 89.64C711.92 89.64 709.296 88.8933 706.95 87.4C704.603 85.864 702.747 83.7947 701.382 81.192C700.016 78.5467 699.334 75.56 699.334 72.232C699.334 68.8613 700.038 65.8747 701.446 63.272C702.854 60.6693 704.731 58.6213 707.078 57.128C709.467 55.6347 712.134 54.888 715.078 54.888C716.827 54.888 718.448 55.144 719.942 55.656C721.435 56.168 722.758 56.8933 723.91 57.832C725.104 58.728 726.086 59.7947 726.854 61.032C727.664 62.2267 728.219 63.528 728.518 64.936L727.11 64.232L727.302 55.592H732.102V89H727.238V80.808L728.518 79.976C728.219 81.256 727.643 82.4933 726.79 83.688C725.936 84.84 724.891 85.864 723.654 86.76C722.459 87.656 721.094 88.36 719.558 88.872C718.064 89.384 716.486 89.64 714.822 89.64ZM715.91 85.032C718.128 85.032 720.112 84.4987 721.862 83.432C723.611 82.3227 724.976 80.808 725.958 78.888C726.982 76.9253 727.494 74.7067 727.494 72.232C727.494 69.7573 726.982 67.56 725.958 65.64C724.976 63.72 723.611 62.2053 721.862 61.096C720.112 59.9867 718.128 59.432 715.91 59.432C713.648 59.432 711.643 59.9867 709.894 61.096C708.187 62.2053 706.822 63.72 705.798 65.64C704.816 67.56 704.326 69.7573 704.326 72.232C704.326 74.664 704.816 76.8613 705.798 78.824C706.779 80.744 708.144 82.2587 709.894 83.368C711.643 84.4773 713.648 85.032 715.91 85.032ZM712.902 50.664L711.174 48.04L720.262 40.424L723.398 44.456L712.902 50.664ZM755.853 103.72C753.379 103.72 751.032 103.336 748.813 102.568C746.595 101.8 744.76 100.84 743.309 99.688L745.229 95.656C746.083 96.3387 747.064 96.936 748.173 97.448C749.325 98.0027 750.563 98.4293 751.885 98.728C753.208 99.0693 754.552 99.24 755.917 99.24C758.392 99.24 760.483 98.7707 762.189 97.832C763.939 96.936 765.261 95.592 766.157 93.8C767.096 92.008 767.565 89.7893 767.565 87.144V80.744L768.333 80.552C767.949 82.1733 767.117 83.688 765.837 85.096C764.557 86.4613 763 87.5707 761.165 88.424C759.331 89.2347 757.389 89.64 755.341 89.64C752.227 89.64 749.432 88.8933 746.957 87.4C744.525 85.9067 742.605 83.8587 741.197 81.256C739.789 78.6107 739.085 75.624 739.085 72.296C739.085 68.9253 739.789 65.9387 741.197 63.336C742.648 60.6907 744.589 58.6213 747.021 57.128C749.453 55.6347 752.184 54.888 755.213 54.888C756.536 54.888 757.816 55.0587 759.053 55.4C760.291 55.6987 761.421 56.1467 762.445 56.744C763.512 57.3413 764.472 58.024 765.325 58.792C766.179 59.56 766.883 60.392 767.437 61.288C768.035 62.184 768.461 63.1013 768.717 64.04L767.373 63.848L767.565 55.592H772.365V86.952C772.365 89.64 771.981 92.008 771.213 94.056C770.445 96.1467 769.315 97.896 767.821 99.304C766.371 100.755 764.621 101.843 762.573 102.568C760.568 103.336 758.328 103.72 755.853 103.72ZM755.917 85.032C758.179 85.032 760.184 84.4987 761.933 83.432C763.725 82.3227 765.133 80.808 766.157 78.888C767.181 76.968 767.693 74.7493 767.693 72.232C767.693 69.7573 767.181 67.56 766.157 65.64C765.176 63.72 763.789 62.2053 761.997 61.096C760.205 59.9867 758.179 59.432 755.917 59.432C753.613 59.432 751.565 59.9867 749.773 61.096C748.024 62.2053 746.637 63.72 745.613 65.64C744.589 67.56 744.077 69.7573 744.077 72.232C744.077 74.664 744.568 76.8613 745.549 78.824C746.573 80.744 747.96 82.2587 749.709 83.368C751.501 84.4773 753.571 85.032 755.917 85.032ZM782.983 89V55.592H787.783V89H782.983ZM785.351 48.36C784.157 48.36 783.239 48.0613 782.599 47.464C782.002 46.824 781.703 45.9707 781.703 44.904C781.703 43.8373 782.023 42.984 782.663 42.344C783.303 41.704 784.199 41.384 785.351 41.384C786.503 41.384 787.399 41.704 788.039 42.344C788.679 42.9413 788.999 43.7947 788.999 44.904C788.999 45.928 788.679 46.76 788.039 47.4C787.399 48.04 786.503 48.36 785.351 48.36ZM798.266 89V55.592H803.002L803.194 62.568L802.426 62.888C802.852 61.4373 803.684 60.1147 804.922 58.92C806.159 57.7253 807.631 56.7653 809.338 56.04C811.087 55.272 812.879 54.888 814.714 54.888C817.188 54.888 819.258 55.3787 820.922 56.36C822.586 57.3413 823.844 58.856 824.698 60.904C825.551 62.952 825.978 65.5547 825.978 68.712V89H821.114V68.968C821.114 66.7493 820.815 64.936 820.218 63.528C819.663 62.0773 818.788 61.0107 817.594 60.328C816.399 59.6453 814.927 59.3253 813.178 59.368C811.727 59.368 810.383 59.624 809.146 60.136C807.908 60.6053 806.842 61.2667 805.946 62.12C805.05 62.9733 804.346 63.9547 803.834 65.064C803.322 66.1733 803.066 67.368 803.066 68.648V89H800.698C800.399 89 800.058 89 799.674 89C799.29 89 798.82 89 798.266 89ZM848.197 89.64C845.295 89.64 842.671 88.8933 840.325 87.4C837.978 85.864 836.122 83.7947 834.757 81.192C833.391 78.5467 832.709 75.56 832.709 72.232C832.709 68.8613 833.413 65.8747 834.821 63.272C836.229 60.6693 838.106 58.6213 840.453 57.128C842.842 55.6347 845.509 54.888 848.453 54.888C850.202 54.888 851.823 55.144 853.317 55.656C854.81 56.168 856.133 56.8933 857.285 57.832C858.479 58.728 859.461 59.7947 860.229 61.032C861.039 62.2267 861.594 63.528 861.893 64.936L860.485 64.232L860.677 55.592H865.477V89H860.613V80.808L861.893 79.976C861.594 81.256 861.018 82.4933 860.165 83.688C859.311 84.84 858.266 85.864 857.029 86.76C855.834 87.656 854.469 88.36 852.933 88.872C851.439 89.384 849.861 89.64 848.197 89.64ZM849.285 85.032C851.503 85.032 853.487 84.4987 855.237 83.432C856.986 82.3227 858.351 80.808 859.333 78.888C860.357 76.9253 860.869 74.7067 860.869 72.232C860.869 69.7573 860.357 67.56 859.333 65.64C858.351 63.72 856.986 62.2053 855.237 61.096C853.487 59.9867 851.503 59.432 849.285 59.432C847.023 59.432 845.018 59.9867 843.269 61.096C841.562 62.2053 840.197 63.72 839.173 65.64C838.191 67.56 837.701 69.7573 837.701 72.232C837.701 74.664 838.191 76.8613 839.173 78.824C840.154 80.744 841.519 82.2587 843.269 83.368C845.018 84.4773 847.023 85.032 849.285 85.032ZM907.486 89.64C904.158 89.64 901.192 88.9147 898.59 87.464C896.03 86.0133 894.024 83.9867 892.574 81.384C891.123 78.7813 890.398 75.7947 890.398 72.424C890.398 69.8213 890.803 67.4747 891.614 65.384C892.424 63.2507 893.555 61.3947 895.006 59.816C896.499 58.2373 898.27 57.0213 900.318 56.168C902.366 55.272 904.584 54.824 906.974 54.824C909.235 54.824 911.283 55.2293 913.118 56.04C914.995 56.8507 916.595 57.9813 917.918 59.432C919.283 60.84 920.307 62.5253 920.99 64.488C921.672 66.4507 921.971 68.6053 921.886 70.952L921.822 73.192H893.982L893.278 69.16H918.174L917.022 70.248V68.712C916.936 67.176 916.488 65.704 915.678 64.296C914.867 62.8453 913.715 61.672 912.222 60.776C910.771 59.88 909.022 59.432 906.974 59.432C904.584 59.432 902.515 59.9227 900.766 60.904C899.016 61.8427 897.672 63.2507 896.734 65.128C895.795 67.0053 895.326 69.3307 895.326 72.104C895.326 74.7493 895.838 77.0533 896.862 79.016C897.886 80.936 899.336 82.4293 901.214 83.496C903.134 84.5627 905.438 85.096 908.126 85.096C909.704 85.096 911.262 84.84 912.798 84.328C914.376 83.7733 916.104 82.7067 917.982 81.128L920.478 84.584C919.496 85.5653 918.323 86.44 916.958 87.208C915.592 87.9333 914.099 88.5307 912.478 89C910.856 89.4267 909.192 89.64 907.486 89.64ZM928.703 89V55.592H933.439L933.631 62.568L932.863 62.888C933.29 61.4373 934.122 60.1147 935.359 58.92C936.597 57.7253 938.069 56.7653 939.775 56.04C941.525 55.272 943.317 54.888 945.151 54.888C947.626 54.888 949.695 55.3787 951.359 56.36C953.023 57.3413 954.282 58.856 955.135 60.904C955.989 62.952 956.415 65.5547 956.415 68.712V89H951.551V68.968C951.551 66.7493 951.253 64.936 950.655 63.528C950.101 62.0773 949.226 61.0107 948.031 60.328C946.837 59.6453 945.365 59.3253 943.615 59.368C942.165 59.368 940.821 59.624 939.583 60.136C938.346 60.6053 937.279 61.2667 936.383 62.12C935.487 62.9733 934.783 63.9547 934.271 65.064C933.759 66.1733 933.503 67.368 933.503 68.648V89H931.135C930.837 89 930.495 89 930.111 89C929.727 89 929.258 89 928.703 89ZM979.658 89.64C976.501 89.64 973.685 88.8933 971.21 87.4C968.736 85.864 966.773 83.7947 965.322 81.192C963.914 78.5467 963.21 75.56 963.21 72.232C963.21 68.904 963.914 65.9387 965.322 63.336C966.773 60.6907 968.736 58.6213 971.21 57.128C973.685 55.6347 976.522 54.888 979.722 54.888C982.581 54.888 985.184 55.464 987.53 56.616C989.877 57.7253 991.754 59.2827 993.162 61.288L990.346 64.744C989.536 63.6773 988.554 62.7387 987.402 61.928C986.293 61.1173 985.077 60.4987 983.754 60.072C982.474 59.6027 981.194 59.368 979.914 59.368C977.653 59.368 975.626 59.944 973.834 61.096C972.042 62.2053 970.613 63.72 969.546 65.64C968.522 67.56 968.01 69.7573 968.01 72.232C968.01 74.7067 968.522 76.9253 969.546 78.888C970.613 80.808 972.042 82.3227 973.834 83.432C975.626 84.5413 977.632 85.096 979.85 85.096C981.13 85.096 982.389 84.904 983.626 84.52C984.864 84.0933 986.037 83.496 987.146 82.728C988.256 81.96 989.28 81 990.218 79.848L993.034 83.304C991.584 85.224 989.642 86.76 987.21 87.912C984.778 89.064 982.261 89.64 979.658 89.64ZM1012.32 89.64C1009.42 89.64 1006.8 88.8933 1004.45 87.4C1002.1 85.864 1000.25 83.7947 998.882 81.192C997.516 78.5467 996.834 75.56 996.834 72.232C996.834 68.8613 997.538 65.8747 998.946 63.272C1000.35 60.6693 1002.23 58.6213 1004.58 57.128C1006.97 55.6347 1009.63 54.888 1012.58 54.888C1014.33 54.888 1015.95 55.144 1017.44 55.656C1018.94 56.168 1020.26 56.8933 1021.41 57.832C1022.6 58.728 1023.59 59.7947 1024.35 61.032C1025.16 62.2267 1025.72 63.528 1026.02 64.936L1024.61 64.232L1024.8 55.592H1029.6V89H1024.74V80.808L1026.02 79.976C1025.72 81.256 1025.14 82.4933 1024.29 83.688C1023.44 84.84 1022.39 85.864 1021.15 86.76C1019.96 87.656 1018.59 88.36 1017.06 88.872C1015.56 89.384 1013.99 89.64 1012.32 89.64ZM1013.41 85.032C1015.63 85.032 1017.61 84.4987 1019.36 83.432C1021.11 82.3227 1022.48 80.808 1023.46 78.888C1024.48 76.9253 1024.99 74.7067 1024.99 72.232C1024.99 69.7573 1024.48 67.56 1023.46 65.64C1022.48 63.72 1021.11 62.2053 1019.36 61.096C1017.61 59.9867 1015.63 59.432 1013.41 59.432C1011.15 59.432 1009.14 59.9867 1007.39 61.096C1005.69 62.2053 1004.32 63.72 1003.3 65.64C1002.32 67.56 1001.83 69.7573 1001.83 72.232C1001.83 74.664 1002.32 76.8613 1003.3 78.824C1004.28 80.744 1005.64 82.2587 1007.39 83.368C1009.14 84.4773 1011.15 85.032 1013.41 85.032ZM1038.95 89V55.592H1043.75L1043.88 64.488L1043.37 63.272C1043.84 61.7787 1044.59 60.392 1045.61 59.112C1046.68 57.832 1047.93 56.808 1049.39 56.04C1050.84 55.272 1052.44 54.888 1054.19 54.888C1054.91 54.888 1055.59 54.952 1056.23 55.08C1056.87 55.1653 1057.41 55.2933 1057.83 55.464L1056.49 60.84C1055.93 60.584 1055.36 60.4133 1054.76 60.328C1054.21 60.2 1053.67 60.136 1053.16 60.136C1051.71 60.136 1050.41 60.392 1049.26 60.904C1048.11 61.416 1047.12 62.1413 1046.31 63.08C1045.5 63.976 1044.88 65.0213 1044.46 66.216C1044.03 67.4107 1043.82 68.6907 1043.82 70.056V89H1038.95ZM1076.29 103.72C1073.82 103.72 1071.47 103.336 1069.25 102.568C1067.03 101.8 1065.2 100.84 1063.75 99.688L1065.67 95.656C1066.52 96.3387 1067.5 96.936 1068.61 97.448C1069.76 98.0027 1071 98.4293 1072.32 98.728C1073.65 99.0693 1074.99 99.24 1076.35 99.24C1078.83 99.24 1080.92 98.7707 1082.63 97.832C1084.38 96.936 1085.7 95.592 1086.59 93.8C1087.53 92.008 1088 89.7893 1088 87.144V80.744L1088.77 80.552C1088.39 82.1733 1087.55 83.688 1086.27 85.096C1084.99 86.4613 1083.44 87.5707 1081.6 88.424C1079.77 89.2347 1077.83 89.64 1075.78 89.64C1072.66 89.64 1069.87 88.8933 1067.39 87.4C1064.96 85.9067 1063.04 83.8587 1061.63 81.256C1060.23 78.6107 1059.52 75.624 1059.52 72.296C1059.52 68.9253 1060.23 65.9387 1061.63 63.336C1063.09 60.6907 1065.03 58.6213 1067.46 57.128C1069.89 55.6347 1072.62 54.888 1075.65 54.888C1076.97 54.888 1078.25 55.0587 1079.49 55.4C1080.73 55.6987 1081.86 56.1467 1082.88 56.744C1083.95 57.3413 1084.91 58.024 1085.76 58.792C1086.62 59.56 1087.32 60.392 1087.87 61.288C1088.47 62.184 1088.9 63.1013 1089.15 64.04L1087.81 63.848L1088 55.592H1092.8V86.952C1092.8 89.64 1092.42 92.008 1091.65 94.056C1090.88 96.1467 1089.75 97.896 1088.26 99.304C1086.81 100.755 1085.06 101.843 1083.01 102.568C1081.01 103.336 1078.77 103.72 1076.29 103.72ZM1076.35 85.032C1078.62 85.032 1080.62 84.4987 1082.37 83.432C1084.16 82.3227 1085.57 80.808 1086.59 78.888C1087.62 76.968 1088.13 74.7493 1088.13 72.232C1088.13 69.7573 1087.62 67.56 1086.59 65.64C1085.61 63.72 1084.23 62.2053 1082.43 61.096C1080.64 59.9867 1078.62 59.432 1076.35 59.432C1074.05 59.432 1072 59.9867 1070.21 61.096C1068.46 62.2053 1067.07 63.72 1066.05 65.64C1065.03 67.56 1064.51 69.7573 1064.51 72.232C1064.51 74.664 1065.01 76.8613 1065.99 78.824C1067.01 80.744 1068.4 82.2587 1070.15 83.368C1071.94 84.4773 1074.01 85.032 1076.35 85.032ZM1115.2 89.64C1112.3 89.64 1109.67 88.8933 1107.32 87.4C1104.98 85.864 1103.12 83.7947 1101.76 81.192C1100.39 78.5467 1099.71 75.56 1099.71 72.232C1099.71 68.8613 1100.41 65.8747 1101.82 63.272C1103.23 60.6693 1105.11 58.6213 1107.45 57.128C1109.84 55.6347 1112.51 54.888 1115.45 54.888C1117.2 54.888 1118.82 55.144 1120.32 55.656C1121.81 56.168 1123.13 56.8933 1124.28 57.832C1125.48 58.728 1126.46 59.7947 1127.23 61.032C1128.04 62.2267 1128.59 63.528 1128.89 64.936L1127.48 64.232L1127.68 55.592H1132.48V89H1127.61V80.808L1128.89 79.976C1128.59 81.256 1128.02 82.4933 1127.16 83.688C1126.31 84.84 1125.27 85.864 1124.03 86.76C1122.83 87.656 1121.47 88.36 1119.93 88.872C1118.44 89.384 1116.86 89.64 1115.2 89.64ZM1116.28 85.032C1118.5 85.032 1120.49 84.4987 1122.24 83.432C1123.99 82.3227 1125.35 80.808 1126.33 78.888C1127.36 76.9253 1127.87 74.7067 1127.87 72.232C1127.87 69.7573 1127.36 67.56 1126.33 65.64C1125.35 63.72 1123.99 62.2053 1122.24 61.096C1120.49 59.9867 1118.5 59.432 1116.28 59.432C1114.02 59.432 1112.02 59.9867 1110.27 61.096C1108.56 62.2053 1107.2 63.72 1106.17 65.64C1105.19 67.56 1104.7 69.7573 1104.7 72.232C1104.7 74.664 1105.19 76.8613 1106.17 78.824C1107.15 80.744 1108.52 82.2587 1110.27 83.368C1112.02 84.4773 1114.02 85.032 1116.28 85.032ZM1155.4 89.64C1152.37 89.64 1149.64 88.8933 1147.2 87.4C1144.81 85.9067 1142.92 83.8587 1141.51 81.256C1140.14 78.6107 1139.46 75.624 1139.46 72.296C1139.46 68.9253 1140.16 65.9387 1141.57 63.336C1142.98 60.6907 1144.88 58.6213 1147.27 57.128C1149.66 55.6347 1152.35 54.888 1155.33 54.888C1157 54.888 1158.6 55.144 1160.13 55.656C1161.71 56.168 1163.12 56.8933 1164.36 57.832C1165.59 58.728 1166.62 59.7733 1167.43 60.968C1168.24 62.12 1168.73 63.336 1168.9 64.616L1167.43 64.104V41.64H1172.23V89H1167.49L1167.36 80.68L1168.58 80.232C1168.41 81.4267 1167.92 82.6 1167.11 83.752C1166.34 84.8613 1165.36 85.864 1164.16 86.76C1162.97 87.656 1161.6 88.36 1160.07 88.872C1158.57 89.384 1157.02 89.64 1155.4 89.64ZM1156.1 85.224C1158.32 85.224 1160.3 84.6693 1162.05 83.56C1163.8 82.4507 1165.17 80.9147 1166.15 78.952C1167.17 76.9893 1167.68 74.7493 1167.68 72.232C1167.68 69.7147 1167.17 67.496 1166.15 65.576C1165.17 63.6133 1163.8 62.0773 1162.05 60.968C1160.3 59.816 1158.32 59.24 1156.1 59.24C1153.8 59.24 1151.77 59.816 1150.02 60.968C1148.31 62.0773 1146.95 63.6133 1145.92 65.576C1144.94 67.496 1144.45 69.7147 1144.45 72.232C1144.45 74.7067 1144.94 76.9253 1145.92 78.888C1146.91 80.8507 1148.27 82.408 1150.02 83.56C1151.77 84.6693 1153.8 85.224 1156.1 85.224ZM1194.63 89.64C1191.73 89.64 1189.11 88.8933 1186.76 87.4C1184.42 85.864 1182.56 83.7947 1181.19 81.192C1179.83 78.5467 1179.15 75.56 1179.15 72.232C1179.15 68.8613 1179.85 65.8747 1181.26 63.272C1182.67 60.6693 1184.54 58.6213 1186.89 57.128C1189.28 55.6347 1191.95 54.888 1194.89 54.888C1196.64 54.888 1198.26 55.144 1199.75 55.656C1201.25 56.168 1202.57 56.8933 1203.72 57.832C1204.92 58.728 1205.9 59.7947 1206.67 61.032C1207.48 62.2267 1208.03 63.528 1208.33 64.936L1206.92 64.232L1207.11 55.592H1211.91V89H1207.05V80.808L1208.33 79.976C1208.03 81.256 1207.46 82.4933 1206.6 83.688C1205.75 84.84 1204.7 85.864 1203.47 86.76C1202.27 87.656 1200.91 88.36 1199.37 88.872C1197.88 89.384 1196.3 89.64 1194.63 89.64ZM1195.72 85.032C1197.94 85.032 1199.92 84.4987 1201.67 83.432C1203.42 82.3227 1204.79 80.808 1205.77 78.888C1206.79 76.9253 1207.31 74.7067 1207.31 72.232C1207.31 69.7573 1206.79 67.56 1205.77 65.64C1204.79 63.72 1203.42 62.2053 1201.67 61.096C1199.92 59.9867 1197.94 59.432 1195.72 59.432C1193.46 59.432 1191.46 59.9867 1189.71 61.096C1188 62.2053 1186.63 63.72 1185.61 65.64C1184.63 67.56 1184.14 69.7573 1184.14 72.232C1184.14 74.664 1184.63 76.8613 1185.61 78.824C1186.59 80.744 1187.96 82.2587 1189.71 83.368C1191.46 84.4773 1193.46 85.032 1195.72 85.032ZM1252.77 89.64C1249.74 89.64 1247.01 88.8933 1244.58 87.4C1242.19 85.9067 1240.29 83.8587 1238.88 81.256C1237.52 78.6107 1236.84 75.624 1236.84 72.296C1236.84 68.9253 1237.54 65.9387 1238.95 63.336C1240.36 60.6907 1242.25 58.6213 1244.64 57.128C1247.03 55.6347 1249.72 54.888 1252.71 54.888C1254.37 54.888 1255.97 55.144 1257.51 55.656C1259.09 56.168 1260.49 56.8933 1261.73 57.832C1262.97 58.728 1263.99 59.7733 1264.8 60.968C1265.61 62.12 1266.1 63.336 1266.28 64.616L1264.8 64.104V41.64H1269.6V89H1264.87L1264.74 80.68L1265.96 80.232C1265.78 81.4267 1265.29 82.6 1264.48 83.752C1263.72 84.8613 1262.73 85.864 1261.54 86.76C1260.34 87.656 1258.98 88.36 1257.44 88.872C1255.95 89.384 1254.39 89.64 1252.77 89.64ZM1253.48 85.224C1255.69 85.224 1257.68 84.6693 1259.43 83.56C1261.18 82.4507 1262.54 80.9147 1263.52 78.952C1264.55 76.9893 1265.06 74.7493 1265.06 72.232C1265.06 69.7147 1264.55 67.496 1263.52 65.576C1262.54 63.6133 1261.18 62.0773 1259.43 60.968C1257.68 59.816 1255.69 59.24 1253.48 59.24C1251.17 59.24 1249.14 59.816 1247.4 60.968C1245.69 62.0773 1244.32 63.6133 1243.3 65.576C1242.32 67.496 1241.83 69.7147 1241.83 72.232C1241.83 74.7067 1242.32 76.9253 1243.3 78.888C1244.28 80.8507 1245.65 82.408 1247.4 83.56C1249.14 84.6693 1251.17 85.224 1253.48 85.224ZM1293.67 89.64C1290.35 89.64 1287.38 88.9147 1284.78 87.464C1282.22 86.0133 1280.21 83.9867 1278.76 81.384C1277.31 78.7813 1276.59 75.7947 1276.59 72.424C1276.59 69.8213 1276.99 67.4747 1277.8 65.384C1278.61 63.2507 1279.74 61.3947 1281.19 59.816C1282.69 58.2373 1284.46 57.0213 1286.51 56.168C1288.55 55.272 1290.77 54.824 1293.16 54.824C1295.42 54.824 1297.47 55.2293 1299.31 56.04C1301.18 56.8507 1302.78 57.9813 1304.11 59.432C1305.47 60.84 1306.49 62.5253 1307.18 64.488C1307.86 66.4507 1308.16 68.6053 1308.07 70.952L1308.01 73.192H1280.17L1279.47 69.16H1304.36L1303.21 70.248V68.712C1303.12 67.176 1302.68 65.704 1301.87 64.296C1301.05 62.8453 1299.9 61.672 1298.41 60.776C1296.96 59.88 1295.21 59.432 1293.16 59.432C1290.77 59.432 1288.7 59.9227 1286.95 60.904C1285.2 61.8427 1283.86 63.2507 1282.92 65.128C1281.98 67.0053 1281.51 69.3307 1281.51 72.104C1281.51 74.7493 1282.03 77.0533 1283.05 79.016C1284.07 80.936 1285.52 82.4293 1287.4 83.496C1289.32 84.5627 1291.63 85.096 1294.31 85.096C1295.89 85.096 1297.45 84.84 1298.99 84.328C1300.56 83.7733 1302.29 82.7067 1304.17 81.128L1306.67 84.584C1305.68 85.5653 1304.51 86.44 1303.15 87.208C1301.78 87.9333 1300.29 88.5307 1298.67 89C1297.04 89.4267 1295.38 89.64 1293.67 89.64ZM1332.96 89V41.64H1337.76V89H1332.96ZM1347.33 89V41.64H1352.13V89H1347.33ZM1375.67 89.64C1372.35 89.64 1369.38 88.9147 1366.78 87.464C1364.22 86.0133 1362.21 83.9867 1360.76 81.384C1359.31 78.7813 1358.59 75.7947 1358.59 72.424C1358.59 69.8213 1358.99 67.4747 1359.8 65.384C1360.61 63.2507 1361.74 61.3947 1363.19 59.816C1364.69 58.2373 1366.46 57.0213 1368.51 56.168C1370.55 55.272 1372.77 54.824 1375.16 54.824C1377.42 54.824 1379.47 55.2293 1381.31 56.04C1383.18 56.8507 1384.78 57.9813 1386.11 59.432C1387.47 60.84 1388.49 62.5253 1389.18 64.488C1389.86 66.4507 1390.16 68.6053 1390.07 70.952L1390.01 73.192H1362.17L1361.47 69.16H1386.36L1385.21 70.248V68.712C1385.12 67.176 1384.68 65.704 1383.87 64.296C1383.05 62.8453 1381.9 61.672 1380.41 60.776C1378.96 59.88 1377.21 59.432 1375.16 59.432C1372.77 59.432 1370.7 59.9227 1368.95 60.904C1367.2 61.8427 1365.86 63.2507 1364.92 65.128C1363.98 67.0053 1363.51 69.3307 1363.51 72.104C1363.51 74.7493 1364.03 77.0533 1365.05 79.016C1366.07 80.936 1367.52 82.4293 1369.4 83.496C1371.32 84.5627 1373.63 85.096 1376.31 85.096C1377.89 85.096 1379.45 84.84 1380.99 84.328C1382.56 83.7733 1384.29 82.7067 1386.17 81.128L1388.67 84.584C1387.68 85.5653 1386.51 86.44 1385.15 87.208C1383.78 87.9333 1382.29 88.5307 1380.67 89C1379.04 89.4267 1377.38 89.64 1375.67 89.64ZM1406.63 89L1392.55 55.592H1397.87L1409 82.92L1407.72 83.624L1419.95 55.592H1425.07L1410.09 89H1406.63ZM1442.82 89.64C1439.92 89.64 1437.3 88.8933 1434.95 87.4C1432.6 85.864 1430.75 83.7947 1429.38 81.192C1428.02 78.5467 1427.33 75.56 1427.33 72.232C1427.33 68.8613 1428.04 65.8747 1429.45 63.272C1430.85 60.6693 1432.73 58.6213 1435.08 57.128C1437.47 55.6347 1440.13 54.888 1443.08 54.888C1444.83 54.888 1446.45 55.144 1447.94 55.656C1449.44 56.168 1450.76 56.8933 1451.91 57.832C1453.1 58.728 1454.09 59.7947 1454.85 61.032C1455.66 62.2267 1456.22 63.528 1456.52 64.936L1455.11 64.232L1455.3 55.592H1460.1V89H1455.24V80.808L1456.52 79.976C1456.22 81.256 1455.64 82.4933 1454.79 83.688C1453.94 84.84 1452.89 85.864 1451.65 86.76C1450.46 87.656 1449.09 88.36 1447.56 88.872C1446.06 89.384 1444.49 89.64 1442.82 89.64ZM1443.91 85.032C1446.13 85.032 1448.11 84.4987 1449.86 83.432C1451.61 82.3227 1452.98 80.808 1453.96 78.888C1454.98 76.9253 1455.49 74.7067 1455.49 72.232C1455.49 69.7573 1454.98 67.56 1453.96 65.64C1452.98 63.72 1451.61 62.2053 1449.86 61.096C1448.11 59.9867 1446.13 59.432 1443.91 59.432C1441.65 59.432 1439.64 59.9867 1437.89 61.096C1436.19 62.2053 1434.82 63.72 1433.8 65.64C1432.82 67.56 1432.33 69.7573 1432.33 72.232C1432.33 74.664 1432.82 76.8613 1433.8 78.824C1434.78 80.744 1436.14 82.2587 1437.89 83.368C1439.64 84.4773 1441.65 85.032 1443.91 85.032ZM1469.45 89V55.592H1474.25L1474.38 64.488L1473.87 63.272C1474.34 61.7787 1475.09 60.392 1476.11 59.112C1477.18 57.832 1478.43 56.808 1479.89 56.04C1481.34 55.272 1482.94 54.888 1484.69 54.888C1485.41 54.888 1486.09 54.952 1486.73 55.08C1487.37 55.1653 1487.91 55.2933 1488.33 55.464L1486.99 60.84C1486.43 60.584 1485.86 60.4133 1485.26 60.328C1484.71 60.2 1484.17 60.136 1483.66 60.136C1482.21 60.136 1480.91 60.392 1479.76 60.904C1478.61 61.416 1477.62 62.1413 1476.81 63.08C1476 63.976 1475.38 65.0213 1474.96 66.216C1474.53 67.4107 1474.32 68.6907 1474.32 70.056V89H1469.45ZM1525.35 89.64C1522.19 89.64 1519.37 88.8933 1516.9 87.4C1514.42 85.864 1512.46 83.7947 1511.01 81.192C1509.6 78.5467 1508.9 75.56 1508.9 72.232C1508.9 68.904 1509.6 65.9387 1511.01 63.336C1512.46 60.6907 1514.42 58.6213 1516.9 57.128C1519.37 55.6347 1522.21 54.888 1525.41 54.888C1528.27 54.888 1530.87 55.464 1533.22 56.616C1535.56 57.7253 1537.44 59.2827 1538.85 61.288L1536.03 64.744C1535.22 63.6773 1534.24 62.7387 1533.09 61.928C1531.98 61.1173 1530.76 60.4987 1529.44 60.072C1528.16 59.6027 1526.88 59.368 1525.6 59.368C1523.34 59.368 1521.31 59.944 1519.52 61.096C1517.73 62.2053 1516.3 63.72 1515.23 65.64C1514.21 67.56 1513.7 69.7573 1513.7 72.232C1513.7 74.7067 1514.21 76.9253 1515.23 78.888C1516.3 80.808 1517.73 82.3227 1519.52 83.432C1521.31 84.5413 1523.32 85.096 1525.54 85.096C1526.82 85.096 1528.08 84.904 1529.31 84.52C1530.55 84.0933 1531.72 83.496 1532.83 82.728C1533.94 81.96 1534.97 81 1535.91 79.848L1538.72 83.304C1537.27 85.224 1535.33 86.76 1532.9 87.912C1530.47 89.064 1527.95 89.64 1525.35 89.64ZM1559.74 89.64C1556.41 89.64 1553.44 88.8933 1550.84 87.4C1548.28 85.9067 1546.25 83.8373 1544.76 81.192C1543.31 78.5467 1542.59 75.5387 1542.59 72.168C1542.59 68.84 1543.31 65.8747 1544.76 63.272C1546.25 60.6693 1548.28 58.6213 1550.84 57.128C1553.44 55.6347 1556.41 54.888 1559.74 54.888C1563.02 54.888 1565.95 55.6347 1568.51 57.128C1571.11 58.6213 1573.13 60.6693 1574.59 63.272C1576.08 65.8747 1576.83 68.84 1576.83 72.168C1576.83 75.5387 1576.08 78.5467 1574.59 81.192C1573.13 83.8373 1571.11 85.9067 1568.51 87.4C1565.95 88.8933 1563.02 89.64 1559.74 89.64ZM1559.74 85.096C1562.08 85.096 1564.17 84.5413 1566.01 83.432C1567.84 82.28 1569.27 80.744 1570.3 78.824C1571.32 76.8613 1571.83 74.6427 1571.83 72.168C1571.83 69.6933 1571.32 67.496 1570.3 65.576C1569.27 63.656 1567.84 62.1627 1566.01 61.096C1564.17 59.9867 1562.08 59.432 1559.74 59.432C1557.39 59.432 1555.28 59.9867 1553.4 61.096C1551.57 62.1627 1550.12 63.6773 1549.05 65.64C1548.03 67.56 1547.53 69.736 1547.58 72.168C1547.53 74.6427 1548.03 76.8613 1549.05 78.824C1550.12 80.744 1551.57 82.28 1553.4 83.432C1555.28 84.5413 1557.39 85.096 1559.74 85.096ZM1583.83 89V55.592H1588.56L1588.76 62.568L1587.99 62.888C1588.41 61.4373 1589.25 60.1147 1590.48 58.92C1591.72 57.7253 1593.19 56.7653 1594.9 56.04C1596.65 55.272 1598.44 54.888 1600.28 54.888C1602.75 54.888 1604.82 55.3787 1606.48 56.36C1608.15 57.3413 1609.41 58.856 1610.26 60.904C1611.11 62.952 1611.54 65.5547 1611.54 68.712V89H1606.68V68.968C1606.68 66.7493 1606.38 64.936 1605.78 63.528C1605.23 62.0773 1604.35 61.0107 1603.16 60.328C1601.96 59.6453 1600.49 59.3253 1598.74 59.368C1597.29 59.368 1595.95 59.624 1594.71 60.136C1593.47 60.6053 1592.4 61.2667 1591.51 62.12C1590.61 62.9733 1589.91 63.9547 1589.4 65.064C1588.88 66.1733 1588.63 67.368 1588.63 68.648V89H1586.26C1585.96 89 1585.62 89 1585.24 89C1584.85 89 1584.38 89 1583.83 89ZM328.749 169V126.824H333.549V169H328.749ZM321.197 140.2V135.592H341.997V140.2H321.197ZM362.362 169.64C359.034 169.64 356.069 168.893 353.466 167.4C350.906 165.907 348.88 163.837 347.386 161.192C345.936 158.547 345.21 155.539 345.21 152.168C345.21 148.84 345.936 145.875 347.386 143.272C348.88 140.669 350.906 138.621 353.466 137.128C356.069 135.635 359.034 134.888 362.362 134.888C365.648 134.888 368.57 135.635 371.13 137.128C373.733 138.621 375.76 140.669 377.21 143.272C378.704 145.875 379.45 148.84 379.45 152.168C379.45 155.539 378.704 158.547 377.21 161.192C375.76 163.837 373.733 165.907 371.13 167.4C368.57 168.893 365.648 169.64 362.362 169.64ZM362.362 165.096C364.709 165.096 366.8 164.541 368.634 163.432C370.469 162.28 371.898 160.744 372.922 158.824C373.946 156.861 374.458 154.643 374.458 152.168C374.458 149.693 373.946 147.496 372.922 145.576C371.898 143.656 370.469 142.163 368.634 141.096C366.8 139.987 364.709 139.432 362.362 139.432C360.016 139.432 357.904 139.987 356.026 141.096C354.192 142.163 352.741 143.677 351.674 145.64C350.65 147.56 350.16 149.736 350.202 152.168C350.16 154.643 350.65 156.861 351.674 158.824C352.741 160.744 354.192 162.28 356.026 163.432C357.904 164.541 360.016 165.096 362.362 165.096ZM391.061 169V126.824H395.861V169H391.061ZM383.509 140.2V135.592H404.309V140.2H383.509ZM422.947 169.64C420.045 169.64 417.421 168.893 415.075 167.4C412.728 165.864 410.872 163.795 409.507 161.192C408.141 158.547 407.459 155.56 407.459 152.232C407.459 148.861 408.163 145.875 409.571 143.272C410.979 140.669 412.856 138.621 415.203 137.128C417.592 135.635 420.259 134.888 423.203 134.888C424.952 134.888 426.573 135.144 428.067 135.656C429.56 136.168 430.883 136.893 432.035 137.832C433.229 138.728 434.211 139.795 434.979 141.032C435.789 142.227 436.344 143.528 436.643 144.936L435.235 144.232L435.427 135.592H440.227V169H435.363V160.808L436.643 159.976C436.344 161.256 435.768 162.493 434.915 163.688C434.061 164.84 433.016 165.864 431.779 166.76C430.584 167.656 429.219 168.36 427.683 168.872C426.189 169.384 424.611 169.64 422.947 169.64ZM424.035 165.032C426.253 165.032 428.237 164.499 429.987 163.432C431.736 162.323 433.101 160.808 434.083 158.888C435.107 156.925 435.619 154.707 435.619 152.232C435.619 149.757 435.107 147.56 434.083 145.64C433.101 143.72 431.736 142.205 429.987 141.096C428.237 139.987 426.253 139.432 424.035 139.432C421.773 139.432 419.768 139.987 418.019 141.096C416.312 142.205 414.947 143.72 413.923 145.64C412.941 147.56 412.451 149.757 412.451 152.232C412.451 154.664 412.941 156.861 413.923 158.824C414.904 160.744 416.269 162.259 418.019 163.368C419.768 164.477 421.773 165.032 424.035 165.032ZM449.706 169V121.64H454.506V169H449.706ZM492.835 169.64C489.976 169.64 487.416 169.107 485.155 168.04C482.893 166.973 481.101 165.565 479.779 163.816L483.171 160.872C484.408 162.365 485.859 163.496 487.523 164.264C489.229 165.032 491.128 165.416 493.219 165.416C494.285 165.416 495.245 165.309 496.099 165.096C496.952 164.84 497.699 164.477 498.339 164.008C498.979 163.539 499.469 162.984 499.811 162.344C500.152 161.704 500.323 161 500.323 160.232C500.323 158.824 499.704 157.651 498.467 156.712C497.912 156.328 497.123 155.944 496.099 155.56C495.075 155.133 493.837 154.728 492.387 154.344C489.997 153.661 488.013 152.979 486.435 152.296C484.856 151.571 483.619 150.739 482.723 149.8C482.083 149.032 481.592 148.2 481.251 147.304C480.952 146.408 480.803 145.427 480.803 144.36C480.803 142.995 481.08 141.736 481.635 140.584C482.232 139.432 483.043 138.429 484.067 137.576C485.133 136.68 486.371 136.019 487.779 135.592C489.229 135.123 490.787 134.888 492.451 134.888C494.029 134.888 495.587 135.101 497.123 135.528C498.659 135.955 500.088 136.573 501.411 137.384C502.733 138.195 503.864 139.155 504.803 140.264L501.859 143.464C501.048 142.611 500.152 141.843 499.171 141.16C498.189 140.477 497.144 139.944 496.035 139.56C494.968 139.176 493.859 138.984 492.707 138.984C491.683 138.984 490.723 139.112 489.827 139.368C488.973 139.624 488.227 139.987 487.587 140.456C486.989 140.883 486.52 141.416 486.179 142.056C485.88 142.696 485.731 143.4 485.731 144.168C485.731 144.808 485.859 145.384 486.115 145.896C486.371 146.408 486.733 146.856 487.203 147.24C487.8 147.709 488.632 148.157 489.699 148.584C490.808 148.968 492.173 149.373 493.795 149.8C495.672 150.312 497.251 150.845 498.531 151.4C499.853 151.912 500.941 152.531 501.795 153.256C502.947 154.109 503.757 155.091 504.227 156.2C504.739 157.309 504.995 158.568 504.995 159.976C504.995 161.853 504.461 163.517 503.395 164.968C502.371 166.419 500.941 167.571 499.107 168.424C497.272 169.235 495.181 169.64 492.835 169.64ZM527.236 169.64C523.908 169.64 520.942 168.915 518.34 167.464C515.78 166.013 513.774 163.987 512.324 161.384C510.873 158.781 510.148 155.795 510.148 152.424C510.148 149.821 510.553 147.475 511.364 145.384C512.174 143.251 513.305 141.395 514.756 139.816C516.249 138.237 518.02 137.021 520.068 136.168C522.116 135.272 524.334 134.824 526.724 134.824C528.985 134.824 531.033 135.229 532.868 136.04C534.745 136.851 536.345 137.981 537.668 139.432C539.033 140.84 540.057 142.525 540.74 144.488C541.422 146.451 541.721 148.605 541.636 150.952L541.572 153.192H513.732L513.028 149.16H537.924L536.772 150.248V148.712C536.686 147.176 536.238 145.704 535.428 144.296C534.617 142.845 533.465 141.672 531.972 140.776C530.521 139.88 528.772 139.432 526.724 139.432C524.334 139.432 522.265 139.923 520.516 140.904C518.766 141.843 517.422 143.251 516.484 145.128C515.545 147.005 515.076 149.331 515.076 152.104C515.076 154.749 515.588 157.053 516.612 159.016C517.636 160.936 519.086 162.429 520.964 163.496C522.884 164.563 525.188 165.096 527.876 165.096C529.454 165.096 531.012 164.84 532.548 164.328C534.126 163.773 535.854 162.707 537.732 161.128L540.228 164.584C539.246 165.565 538.073 166.44 536.708 167.208C535.342 167.933 533.849 168.531 532.228 169C530.606 169.427 528.942 169.64 527.236 169.64ZM562.541 183.72C560.066 183.72 557.719 183.336 555.501 182.568C553.282 181.8 551.447 180.84 549.997 179.688L551.917 175.656C552.77 176.339 553.751 176.936 554.861 177.448C556.013 178.003 557.25 178.429 558.573 178.728C559.895 179.069 561.239 179.24 562.605 179.24C565.079 179.24 567.17 178.771 568.877 177.832C570.626 176.936 571.949 175.592 572.845 173.8C573.783 172.008 574.253 169.789 574.253 167.144V160.744L575.021 160.552C574.637 162.173 573.805 163.688 572.525 165.096C571.245 166.461 569.687 167.571 567.853 168.424C566.018 169.235 564.077 169.64 562.029 169.64C558.914 169.64 556.119 168.893 553.645 167.4C551.213 165.907 549.293 163.859 547.885 161.256C546.477 158.611 545.773 155.624 545.773 152.296C545.773 148.925 546.477 145.939 547.885 143.336C549.335 140.691 551.277 138.621 553.709 137.128C556.141 135.635 558.871 134.888 561.901 134.888C563.223 134.888 564.503 135.059 565.741 135.4C566.978 135.699 568.109 136.147 569.133 136.744C570.199 137.341 571.159 138.024 572.013 138.792C572.866 139.56 573.57 140.392 574.125 141.288C574.722 142.184 575.149 143.101 575.405 144.04L574.061 143.848L574.253 135.592H579.053V166.952C579.053 169.64 578.669 172.008 577.901 174.056C577.133 176.147 576.002 177.896 574.509 179.304C573.058 180.755 571.309 181.843 569.261 182.568C567.255 183.336 565.015 183.72 562.541 183.72ZM562.605 165.032C564.866 165.032 566.871 164.499 568.621 163.432C570.413 162.323 571.821 160.808 572.845 158.888C573.869 156.968 574.381 154.749 574.381 152.232C574.381 149.757 573.869 147.56 572.845 145.64C571.863 143.72 570.477 142.205 568.685 141.096C566.893 139.987 564.866 139.432 562.605 139.432C560.301 139.432 558.253 139.987 556.461 141.096C554.711 142.205 553.325 143.72 552.301 145.64C551.277 147.56 550.765 149.757 550.765 152.232C550.765 154.664 551.255 156.861 552.237 158.824C553.261 160.744 554.647 162.259 556.397 163.368C558.189 164.477 560.258 165.032 562.605 165.032ZM599.731 169.64C597.171 169.64 594.995 169.128 593.203 168.104C591.453 167.037 590.109 165.501 589.171 163.496C588.275 161.491 587.827 158.995 587.827 156.008V135.592H592.691V155.048C592.691 157.309 592.989 159.208 593.587 160.744C594.227 162.237 595.165 163.368 596.403 164.136C597.683 164.904 599.24 165.288 601.075 165.288C602.483 165.288 603.784 165.053 604.979 164.584C606.173 164.072 607.219 163.389 608.115 162.536C609.011 161.683 609.715 160.68 610.227 159.528C610.739 158.376 610.995 157.16 610.995 155.88V135.592H615.795V169H611.059L610.867 161.96L611.635 161.576C611.123 163.069 610.269 164.435 609.075 165.672C607.88 166.867 606.451 167.827 604.787 168.552C603.165 169.277 601.48 169.64 599.731 169.64ZM625.141 169V135.592H629.941L630.069 144.488L629.557 143.272C630.026 141.779 630.773 140.392 631.797 139.112C632.863 137.832 634.122 136.808 635.573 136.04C637.023 135.272 638.623 134.888 640.373 134.888C641.098 134.888 641.781 134.952 642.421 135.08C643.061 135.165 643.594 135.293 644.021 135.464L642.677 140.84C642.122 140.584 641.546 140.413 640.949 140.328C640.394 140.2 639.861 140.136 639.349 140.136C637.898 140.136 636.597 140.392 635.445 140.904C634.293 141.416 633.311 142.141 632.501 143.08C631.69 143.976 631.071 145.021 630.645 146.216C630.218 147.411 630.005 148.691 630.005 150.056V169H625.141ZM650.296 169V135.592H655.096V169H650.296ZM652.664 128.36C651.469 128.36 650.552 128.061 649.912 127.464C649.314 126.824 649.016 125.971 649.016 124.904C649.016 123.837 649.336 122.984 649.976 122.344C650.616 121.704 651.512 121.384 652.664 121.384C653.816 121.384 654.712 121.704 655.352 122.344C655.992 122.941 656.312 123.795 656.312 124.904C656.312 125.928 655.992 126.76 655.352 127.4C654.712 128.04 653.816 128.36 652.664 128.36ZM679.146 169.64C676.117 169.64 673.386 168.893 670.954 167.4C668.565 165.907 666.666 163.859 665.258 161.256C663.893 158.611 663.21 155.624 663.21 152.296C663.21 148.925 663.914 145.939 665.322 143.336C666.73 140.691 668.629 138.621 671.018 137.128C673.408 135.635 676.096 134.888 679.082 134.888C680.746 134.888 682.346 135.144 683.882 135.656C685.461 136.168 686.869 136.893 688.106 137.832C689.344 138.728 690.368 139.773 691.178 140.968C691.989 142.12 692.48 143.336 692.65 144.616L691.178 144.104V121.64H695.978V169H691.242L691.114 160.68L692.33 160.232C692.16 161.427 691.669 162.6 690.858 163.752C690.09 164.861 689.109 165.864 687.914 166.76C686.72 167.656 685.354 168.36 683.818 168.872C682.325 169.384 680.768 169.64 679.146 169.64ZM679.85 165.224C682.069 165.224 684.053 164.669 685.802 163.56C687.552 162.451 688.917 160.915 689.898 158.952C690.922 156.989 691.434 154.749 691.434 152.232C691.434 149.715 690.922 147.496 689.898 145.576C688.917 143.613 687.552 142.077 685.802 140.968C684.053 139.816 682.069 139.24 679.85 139.24C677.546 139.24 675.52 139.816 673.77 140.968C672.064 142.077 670.698 143.613 669.674 145.576C668.693 147.496 668.202 149.715 668.202 152.232C668.202 154.707 668.693 156.925 669.674 158.888C670.656 160.851 672.021 162.408 673.77 163.56C675.52 164.669 677.546 165.224 679.85 165.224ZM718.384 169.64C715.483 169.64 712.859 168.893 710.512 167.4C708.166 165.864 706.31 163.795 704.944 161.192C703.579 158.547 702.896 155.56 702.896 152.232C702.896 148.861 703.6 145.875 705.008 143.272C706.416 140.669 708.294 138.621 710.64 137.128C713.03 135.635 715.696 134.888 718.64 134.888C720.39 134.888 722.011 135.144 723.504 135.656C724.998 136.168 726.32 136.893 727.472 137.832C728.667 138.728 729.648 139.795 730.416 141.032C731.227 142.227 731.782 143.528 732.08 144.936L730.672 144.232L730.864 135.592H735.664V169H730.8V160.808L732.08 159.976C731.782 161.256 731.206 162.493 730.352 163.688C729.499 164.84 728.454 165.864 727.216 166.76C726.022 167.656 724.656 168.36 723.12 168.872C721.627 169.384 720.048 169.64 718.384 169.64ZM719.472 165.032C721.691 165.032 723.675 164.499 725.424 163.432C727.174 162.323 728.539 160.808 729.52 158.888C730.544 156.925 731.056 154.707 731.056 152.232C731.056 149.757 730.544 147.56 729.52 145.64C728.539 143.72 727.174 142.205 725.424 141.096C723.675 139.987 721.691 139.432 719.472 139.432C717.211 139.432 715.206 139.987 713.456 141.096C711.75 142.205 710.384 143.72 709.36 145.64C708.379 147.56 707.888 149.757 707.888 152.232C707.888 154.664 708.379 156.861 709.36 158.824C710.342 160.744 711.707 162.259 713.456 163.368C715.206 164.477 717.211 165.032 719.472 165.032ZM758.584 169.64C755.554 169.64 752.824 168.893 750.392 167.4C748.002 165.907 746.104 163.859 744.696 161.256C743.33 158.611 742.648 155.624 742.648 152.296C742.648 148.925 743.352 145.939 744.76 143.336C746.168 140.691 748.066 138.621 750.456 137.128C752.845 135.635 755.533 134.888 758.52 134.888C760.184 134.888 761.784 135.144 763.32 135.656C764.898 136.168 766.306 136.893 767.544 137.832C768.781 138.728 769.805 139.773 770.616 140.968C771.426 142.12 771.917 143.336 772.088 144.616L770.616 144.104V121.64H775.416V169H770.68L770.552 160.68L771.768 160.232C771.597 161.427 771.106 162.6 770.296 163.752C769.528 164.861 768.546 165.864 767.352 166.76C766.157 167.656 764.792 168.36 763.256 168.872C761.762 169.384 760.205 169.64 758.584 169.64ZM759.288 165.224C761.506 165.224 763.49 164.669 765.24 163.56C766.989 162.451 768.354 160.915 769.336 158.952C770.36 156.989 770.872 154.749 770.872 152.232C770.872 149.715 770.36 147.496 769.336 145.576C768.354 143.613 766.989 142.077 765.24 140.968C763.49 139.816 761.506 139.24 759.288 139.24C756.984 139.24 754.957 139.816 753.208 140.968C751.501 142.077 750.136 143.613 749.112 145.576C748.13 147.496 747.64 149.715 747.64 152.232C747.64 154.707 748.13 156.925 749.112 158.888C750.093 160.851 751.458 162.408 753.208 163.56C754.957 164.669 756.984 165.224 759.288 165.224ZM785.406 179.56L783.614 177.256C784.979 176.445 786.046 175.571 786.814 174.632C787.582 173.693 787.966 172.797 787.966 171.944C787.966 171.475 787.88 171.027 787.71 170.6C787.539 170.173 787.112 169.64 786.43 169C785.832 168.445 785.384 167.912 785.086 167.4C784.83 166.888 784.702 166.355 784.702 165.8C784.702 164.947 785 164.264 785.598 163.752C786.195 163.197 786.984 162.92 787.966 162.92C788.947 162.92 789.8 163.176 790.526 163.688C791.251 164.2 791.806 164.925 792.19 165.864C792.616 166.76 792.83 167.827 792.83 169.064C792.83 170.216 792.659 171.283 792.318 172.264C791.976 173.288 791.486 174.248 790.846 175.144C790.206 176.04 789.438 176.851 788.542 177.576C787.646 178.301 786.6 178.963 785.406 179.56ZM832.721 169.64C829.563 169.64 826.747 168.893 824.273 167.4C821.798 165.864 819.835 163.795 818.385 161.192C816.977 158.547 816.273 155.56 816.273 152.232C816.273 148.904 816.977 145.939 818.385 143.336C819.835 140.691 821.798 138.621 824.273 137.128C826.747 135.635 829.585 134.888 832.785 134.888C835.643 134.888 838.246 135.464 840.593 136.616C842.939 137.725 844.817 139.283 846.225 141.288L843.409 144.744C842.598 143.677 841.617 142.739 840.465 141.928C839.355 141.117 838.139 140.499 836.817 140.072C835.537 139.603 834.257 139.368 832.977 139.368C830.715 139.368 828.689 139.944 826.897 141.096C825.105 142.205 823.675 143.72 822.609 145.64C821.585 147.56 821.073 149.757 821.073 152.232C821.073 154.707 821.585 156.925 822.609 158.888C823.675 160.808 825.105 162.323 826.897 163.432C828.689 164.541 830.694 165.096 832.913 165.096C834.193 165.096 835.451 164.904 836.689 164.52C837.926 164.093 839.099 163.496 840.209 162.728C841.318 161.96 842.342 161 843.281 159.848L846.097 163.304C844.646 165.224 842.705 166.76 840.273 167.912C837.841 169.064 835.323 169.64 832.721 169.64ZM867.112 169.64C863.784 169.64 860.819 168.893 858.216 167.4C855.656 165.907 853.63 163.837 852.136 161.192C850.686 158.547 849.96 155.539 849.96 152.168C849.96 148.84 850.686 145.875 852.136 143.272C853.63 140.669 855.656 138.621 858.216 137.128C860.819 135.635 863.784 134.888 867.112 134.888C870.398 134.888 873.32 135.635 875.88 137.128C878.483 138.621 880.51 140.669 881.96 143.272C883.454 145.875 884.2 148.84 884.2 152.168C884.2 155.539 883.454 158.547 881.96 161.192C880.51 163.837 878.483 165.907 875.88 167.4C873.32 168.893 870.398 169.64 867.112 169.64ZM867.112 165.096C869.459 165.096 871.55 164.541 873.384 163.432C875.219 162.28 876.648 160.744 877.672 158.824C878.696 156.861 879.208 154.643 879.208 152.168C879.208 149.693 878.696 147.496 877.672 145.576C876.648 143.656 875.219 142.163 873.384 141.096C871.55 139.987 869.459 139.432 867.112 139.432C864.766 139.432 862.654 139.987 860.776 141.096C858.942 142.163 857.491 143.677 856.424 145.64C855.4 147.56 854.91 149.736 854.952 152.168C854.91 154.643 855.4 156.861 856.424 158.824C857.491 160.744 858.942 162.28 860.776 163.432C862.654 164.541 864.766 165.096 867.112 165.096ZM891.203 169V135.592H895.939L896.131 142.568L895.363 142.888C895.79 141.437 896.622 140.115 897.859 138.92C899.097 137.725 900.569 136.765 902.275 136.04C904.025 135.272 905.817 134.888 907.651 134.888C910.126 134.888 912.195 135.379 913.859 136.36C915.523 137.341 916.782 138.856 917.635 140.904C918.489 142.952 918.915 145.555 918.915 148.712V169H914.051V148.968C914.051 146.749 913.753 144.936 913.155 143.528C912.601 142.077 911.726 141.011 910.531 140.328C909.337 139.645 907.865 139.325 906.115 139.368C904.665 139.368 903.321 139.624 902.083 140.136C900.846 140.605 899.779 141.267 898.883 142.12C897.987 142.973 897.283 143.955 896.771 145.064C896.259 146.173 896.003 147.368 896.003 148.648V169H893.635C893.337 169 892.995 169 892.611 169C892.227 169 891.758 169 891.203 169ZM931.918 169V130.408C931.918 128.744 932.281 127.272 933.006 125.992C933.732 124.712 934.756 123.709 936.078 122.984C937.444 122.216 939.022 121.832 940.814 121.832C942.18 121.832 943.396 122.088 944.462 122.6C945.572 123.069 946.489 123.731 947.214 124.584L945.55 128.36C944.868 127.635 944.121 127.123 943.31 126.824C942.542 126.483 941.796 126.312 941.07 126.312C940.132 126.312 939.342 126.483 938.702 126.824C938.062 127.123 937.572 127.592 937.23 128.232C936.932 128.829 936.782 129.555 936.782 130.408V169H934.542C934.073 169 933.625 169 933.198 169C932.772 169 932.345 169 931.918 169ZM925.966 140.328V135.848H945.294V140.328H925.966ZM953.55 169V135.592H958.35V169H953.55ZM955.918 128.36C954.724 128.36 953.806 128.061 953.166 127.464C952.569 126.824 952.27 125.971 952.27 124.904C952.27 123.837 952.59 122.984 953.23 122.344C953.87 121.704 954.766 121.384 955.918 121.384C957.07 121.384 957.966 121.704 958.606 122.344C959.246 122.941 959.566 123.795 959.566 124.904C959.566 125.928 959.246 126.76 958.606 127.4C957.966 128.04 957.07 128.36 955.918 128.36ZM981.884 169.64C978.983 169.64 976.359 168.893 974.012 167.4C971.666 165.864 969.81 163.795 968.444 161.192C967.079 158.547 966.396 155.56 966.396 152.232C966.396 148.861 967.1 145.875 968.508 143.272C969.916 140.669 971.794 138.621 974.14 137.128C976.53 135.635 979.196 134.888 982.14 134.888C983.89 134.888 985.511 135.144 987.004 135.656C988.498 136.168 989.82 136.893 990.972 137.832C992.167 138.728 993.148 139.795 993.916 141.032C994.727 142.227 995.282 143.528 995.58 144.936L994.172 144.232L994.364 135.592H999.164V169H994.3V160.808L995.58 159.976C995.282 161.256 994.706 162.493 993.852 163.688C992.999 164.84 991.954 165.864 990.716 166.76C989.522 167.656 988.156 168.36 986.62 168.872C985.127 169.384 983.548 169.64 981.884 169.64ZM982.972 165.032C985.191 165.032 987.175 164.499 988.924 163.432C990.674 162.323 992.039 160.808 993.02 158.888C994.044 156.925 994.556 154.707 994.556 152.232C994.556 149.757 994.044 147.56 993.02 145.64C992.039 143.72 990.674 142.205 988.924 141.096C987.175 139.987 985.191 139.432 982.972 139.432C980.711 139.432 978.706 139.987 976.956 141.096C975.25 142.205 973.884 143.72 972.86 145.64C971.879 147.56 971.388 149.757 971.388 152.232C971.388 154.664 971.879 156.861 972.86 158.824C973.842 160.744 975.207 162.259 976.956 163.368C978.706 164.477 980.711 165.032 982.972 165.032ZM1008.52 169V135.592H1013.25L1013.44 142.568L1012.68 142.888C1013.1 141.437 1013.93 140.115 1015.17 138.92C1016.41 137.725 1017.88 136.765 1019.59 136.04C1021.34 135.272 1023.13 134.888 1024.96 134.888C1027.44 134.888 1029.51 135.379 1031.17 136.36C1032.84 137.341 1034.09 138.856 1034.95 140.904C1035.8 142.952 1036.23 145.555 1036.23 148.712V169H1031.36V148.968C1031.36 146.749 1031.07 144.936 1030.47 143.528C1029.91 142.077 1029.04 141.011 1027.84 140.328C1026.65 139.645 1025.18 139.325 1023.43 139.368C1021.98 139.368 1020.63 139.624 1019.4 140.136C1018.16 140.605 1017.09 141.267 1016.2 142.12C1015.3 142.973 1014.6 143.955 1014.08 145.064C1013.57 146.173 1013.32 147.368 1013.32 148.648V169H1010.95C1010.65 169 1010.31 169 1009.92 169C1009.54 169 1009.07 169 1008.52 169ZM1043.53 169V164.84L1061.97 138.856L1062.54 139.88H1043.53V135.592H1067.02V139.688L1048.65 165.608L1048.01 164.648H1067.73V169H1043.53ZM1087.51 169.64C1084.61 169.64 1081.98 168.893 1079.64 167.4C1077.29 165.864 1075.43 163.795 1074.07 161.192C1072.7 158.547 1072.02 155.56 1072.02 152.232C1072.02 148.861 1072.73 145.875 1074.13 143.272C1075.54 140.669 1077.42 138.621 1079.77 137.128C1082.15 135.635 1084.82 134.888 1087.77 134.888C1089.51 134.888 1091.14 135.144 1092.63 135.656C1094.12 136.168 1095.45 136.893 1096.6 137.832C1097.79 138.728 1098.77 139.795 1099.54 141.032C1100.35 142.227 1100.91 143.528 1101.21 144.936L1099.8 144.232L1099.99 135.592H1104.79V169H1099.93V160.808L1101.21 159.976C1100.91 161.256 1100.33 162.493 1099.48 163.688C1098.62 164.84 1097.58 165.864 1096.34 166.76C1095.15 167.656 1093.78 168.36 1092.25 168.872C1090.75 169.384 1089.17 169.64 1087.51 169.64ZM1088.6 165.032C1090.82 165.032 1092.8 164.499 1094.55 163.432C1096.3 162.323 1097.66 160.808 1098.65 158.888C1099.67 156.925 1100.18 154.707 1100.18 152.232C1100.18 149.757 1099.67 147.56 1098.65 145.64C1097.66 143.72 1096.3 142.205 1094.55 141.096C1092.8 139.987 1090.82 139.432 1088.6 139.432C1086.34 139.432 1084.33 139.987 1082.58 141.096C1080.87 142.205 1079.51 143.72 1078.49 145.64C1077.5 147.56 1077.01 149.757 1077.01 152.232C1077.01 154.664 1077.5 156.861 1078.49 158.824C1079.47 160.744 1080.83 162.259 1082.58 163.368C1084.33 164.477 1086.34 165.032 1088.6 165.032ZM1137.71 183.72L1144.17 167.976L1144.62 172.52L1127.85 135.592H1133.29L1144.75 161.192C1145.09 161.875 1145.43 162.685 1145.77 163.624C1146.12 164.52 1146.44 165.416 1146.73 166.312L1144.94 166.12C1145.24 165.395 1145.52 164.648 1145.77 163.88C1146.07 163.112 1146.35 162.365 1146.61 161.64L1156.65 135.592H1162.16L1148.65 169L1142.89 183.72H1137.71ZM1189.75 169V126.824H1194.55V169H1189.75ZM1182.2 140.2V135.592H1203V140.2H1182.2ZM1208.89 169V135.592H1213.69L1213.82 144.488L1213.31 143.272C1213.78 141.779 1214.52 140.392 1215.55 139.112C1216.61 137.832 1217.87 136.808 1219.32 136.04C1220.77 135.272 1222.37 134.888 1224.12 134.888C1224.85 134.888 1225.53 134.952 1226.17 135.08C1226.81 135.165 1227.34 135.293 1227.77 135.464L1226.43 140.84C1225.87 140.584 1225.3 140.413 1224.7 140.328C1224.14 140.2 1223.61 140.136 1223.1 140.136C1221.65 140.136 1220.35 140.392 1219.19 140.904C1218.04 141.416 1217.06 142.141 1216.25 143.08C1215.44 143.976 1214.82 145.021 1214.39 146.216C1213.97 147.411 1213.75 148.691 1213.75 150.056V169H1208.89ZM1244.38 169.64C1241.48 169.64 1238.86 168.893 1236.51 167.4C1234.17 165.864 1232.31 163.795 1230.94 161.192C1229.58 158.547 1228.9 155.56 1228.9 152.232C1228.9 148.861 1229.6 145.875 1231.01 143.272C1232.42 140.669 1234.29 138.621 1236.64 137.128C1239.03 135.635 1241.7 134.888 1244.64 134.888C1246.39 134.888 1248.01 135.144 1249.5 135.656C1251 136.168 1252.32 136.893 1253.47 137.832C1254.67 138.728 1255.65 139.795 1256.42 141.032C1257.23 142.227 1257.78 143.528 1258.08 144.936L1256.67 144.232L1256.86 135.592H1261.66V169H1256.8V160.808L1258.08 159.976C1257.78 161.256 1257.21 162.493 1256.35 163.688C1255.5 164.84 1254.45 165.864 1253.22 166.76C1252.02 167.656 1250.66 168.36 1249.12 168.872C1247.63 169.384 1246.05 169.64 1244.38 169.64ZM1245.47 165.032C1247.69 165.032 1249.67 164.499 1251.42 163.432C1253.17 162.323 1254.54 160.808 1255.52 158.888C1256.54 156.925 1257.06 154.707 1257.06 152.232C1257.06 149.757 1256.54 147.56 1255.52 145.64C1254.54 143.72 1253.17 142.205 1251.42 141.096C1249.67 139.987 1247.69 139.432 1245.47 139.432C1243.21 139.432 1241.21 139.987 1239.46 141.096C1237.75 142.205 1236.38 143.72 1235.36 145.64C1234.38 147.56 1233.89 149.757 1233.89 152.232C1233.89 154.664 1234.38 156.861 1235.36 158.824C1236.34 160.744 1237.71 162.259 1239.46 163.368C1241.21 164.477 1243.21 165.032 1245.47 165.032ZM1271.02 169V135.592H1275.75L1275.94 142.568L1275.18 142.888C1275.6 141.437 1276.43 140.115 1277.67 138.92C1278.91 137.725 1280.38 136.765 1282.09 136.04C1283.84 135.272 1285.63 134.888 1287.46 134.888C1289.94 134.888 1292.01 135.379 1293.67 136.36C1295.34 137.341 1296.59 138.856 1297.45 140.904C1298.3 142.952 1298.73 145.555 1298.73 148.712V169H1293.86V148.968C1293.86 146.749 1293.57 144.936 1292.97 143.528C1292.41 142.077 1291.54 141.011 1290.34 140.328C1289.15 139.645 1287.68 139.325 1285.93 139.368C1284.48 139.368 1283.13 139.624 1281.9 140.136C1280.66 140.605 1279.59 141.267 1278.7 142.12C1277.8 142.973 1277.1 143.955 1276.58 145.064C1276.07 146.173 1275.82 147.368 1275.82 148.648V169H1273.45C1273.15 169 1272.81 169 1272.42 169C1272.04 169 1271.57 169 1271.02 169ZM1318.83 169.64C1315.98 169.64 1313.42 169.107 1311.15 168.04C1308.89 166.973 1307.1 165.565 1305.78 163.816L1309.17 160.872C1310.41 162.365 1311.86 163.496 1313.52 164.264C1315.23 165.032 1317.13 165.416 1319.22 165.416C1320.29 165.416 1321.25 165.309 1322.1 165.096C1322.95 164.84 1323.7 164.477 1324.34 164.008C1324.98 163.539 1325.47 162.984 1325.81 162.344C1326.15 161.704 1326.32 161 1326.32 160.232C1326.32 158.824 1325.7 157.651 1324.47 156.712C1323.91 156.328 1323.12 155.944 1322.1 155.56C1321.07 155.133 1319.84 154.728 1318.39 154.344C1316 153.661 1314.01 152.979 1312.43 152.296C1310.86 151.571 1309.62 150.739 1308.72 149.8C1308.08 149.032 1307.59 148.2 1307.25 147.304C1306.95 146.408 1306.8 145.427 1306.8 144.36C1306.8 142.995 1307.08 141.736 1307.63 140.584C1308.23 139.432 1309.04 138.429 1310.07 137.576C1311.13 136.68 1312.37 136.019 1313.78 135.592C1315.23 135.123 1316.79 134.888 1318.45 134.888C1320.03 134.888 1321.59 135.101 1323.12 135.528C1324.66 135.955 1326.09 136.573 1327.41 137.384C1328.73 138.195 1329.86 139.155 1330.8 140.264L1327.86 143.464C1327.05 142.611 1326.15 141.843 1325.17 141.16C1324.19 140.477 1323.14 139.944 1322.03 139.56C1320.97 139.176 1319.86 138.984 1318.71 138.984C1317.68 138.984 1316.72 139.112 1315.83 139.368C1314.97 139.624 1314.23 139.987 1313.59 140.456C1312.99 140.883 1312.52 141.416 1312.18 142.056C1311.88 142.696 1311.73 143.4 1311.73 144.168C1311.73 144.808 1311.86 145.384 1312.11 145.896C1312.37 146.408 1312.73 146.856 1313.2 147.24C1313.8 147.709 1314.63 148.157 1315.7 148.584C1316.81 148.968 1318.17 149.373 1319.79 149.8C1321.67 150.312 1323.25 150.845 1324.53 151.4C1325.85 151.912 1326.94 152.531 1327.79 153.256C1328.95 154.109 1329.76 155.091 1330.23 156.2C1330.74 157.309 1330.99 158.568 1330.99 159.976C1330.99 161.853 1330.46 163.517 1329.39 164.968C1328.37 166.419 1326.94 167.571 1325.11 168.424C1323.27 169.235 1321.18 169.64 1318.83 169.64ZM1338.52 183.08V135.592H1343.32L1343.44 143.72L1342.55 143.848C1342.93 142.227 1343.76 140.755 1345.04 139.432C1346.32 138.067 1347.88 136.979 1349.72 136.168C1351.55 135.357 1353.49 134.952 1355.54 134.952C1358.53 134.952 1361.19 135.699 1363.54 137.192C1365.93 138.685 1367.83 140.733 1369.24 143.336C1370.64 145.939 1371.35 148.925 1371.35 152.296C1371.35 155.624 1370.67 158.589 1369.3 161.192C1367.93 163.795 1366.06 165.864 1363.67 167.4C1361.28 168.893 1358.59 169.64 1355.6 169.64C1353.51 169.64 1351.53 169.213 1349.65 168.36C1347.77 167.507 1346.17 166.397 1344.85 165.032C1343.53 163.624 1342.65 162.109 1342.23 160.488H1343.38V183.08H1338.52ZM1354.84 165.032C1357.1 165.032 1359.1 164.477 1360.85 163.368C1362.6 162.259 1363.99 160.744 1365.01 158.824C1366.04 156.904 1366.55 154.728 1366.55 152.296C1366.55 149.821 1366.04 147.624 1365.01 145.704C1363.99 143.784 1362.6 142.269 1360.85 141.16C1359.1 140.051 1357.1 139.496 1354.84 139.496C1352.57 139.496 1350.55 140.051 1348.76 141.16C1347.01 142.227 1345.62 143.72 1344.6 145.64C1343.57 147.56 1343.06 149.757 1343.06 152.232C1343.06 154.707 1343.57 156.904 1344.6 158.824C1345.62 160.744 1347.01 162.259 1348.76 163.368C1350.55 164.477 1352.57 165.032 1354.84 165.032ZM1391.38 169.64C1388.48 169.64 1385.86 168.893 1383.51 167.4C1381.17 165.864 1379.31 163.795 1377.94 161.192C1376.58 158.547 1375.9 155.56 1375.9 152.232C1375.9 148.861 1376.6 145.875 1378.01 143.272C1379.42 140.669 1381.29 138.621 1383.64 137.128C1386.03 135.635 1388.7 134.888 1391.64 134.888C1393.39 134.888 1395.01 135.144 1396.5 135.656C1398 136.168 1399.32 136.893 1400.47 137.832C1401.67 138.728 1402.65 139.795 1403.42 141.032C1404.23 142.227 1404.78 143.528 1405.08 144.936L1403.67 144.232L1403.86 135.592H1408.66V169H1403.8V160.808L1405.08 159.976C1404.78 161.256 1404.21 162.493 1403.35 163.688C1402.5 164.84 1401.45 165.864 1400.22 166.76C1399.02 167.656 1397.66 168.36 1396.12 168.872C1394.63 169.384 1393.05 169.64 1391.38 169.64ZM1392.47 165.032C1394.69 165.032 1396.67 164.499 1398.42 163.432C1400.17 162.323 1401.54 160.808 1402.52 158.888C1403.54 156.925 1404.06 154.707 1404.06 152.232C1404.06 149.757 1403.54 147.56 1402.52 145.64C1401.54 143.72 1400.17 142.205 1398.42 141.096C1396.67 139.987 1394.69 139.432 1392.47 139.432C1390.21 139.432 1388.21 139.987 1386.46 141.096C1384.75 142.205 1383.38 143.72 1382.36 145.64C1381.38 147.56 1380.89 149.757 1380.89 152.232C1380.89 154.664 1381.38 156.861 1382.36 158.824C1383.34 160.744 1384.71 162.259 1386.46 163.368C1388.21 164.477 1390.21 165.032 1392.47 165.032ZM1418.02 169V135.592H1422.82L1422.94 144.488L1422.43 143.272C1422.9 141.779 1423.65 140.392 1424.67 139.112C1425.74 137.832 1427 136.808 1428.45 136.04C1429.9 135.272 1431.5 134.888 1433.25 134.888C1433.97 134.888 1434.66 134.952 1435.3 135.08C1435.94 135.165 1436.47 135.293 1436.9 135.464L1435.55 140.84C1435 140.584 1434.42 140.413 1433.82 140.328C1433.27 140.2 1432.74 140.136 1432.22 140.136C1430.77 140.136 1429.47 140.392 1428.32 140.904C1427.17 141.416 1426.19 142.141 1425.38 143.08C1424.57 143.976 1423.95 145.021 1423.52 146.216C1423.09 147.411 1422.88 148.691 1422.88 150.056V169H1418.02ZM1455.17 169.64C1451.85 169.64 1448.88 168.915 1446.28 167.464C1443.72 166.013 1441.71 163.987 1440.26 161.384C1438.81 158.781 1438.09 155.795 1438.09 152.424C1438.09 149.821 1438.49 147.475 1439.3 145.384C1440.11 143.251 1441.24 141.395 1442.69 139.816C1444.19 138.237 1445.96 137.021 1448.01 136.168C1450.05 135.272 1452.27 134.824 1454.66 134.824C1456.92 134.824 1458.97 135.229 1460.81 136.04C1462.68 136.851 1464.28 137.981 1465.61 139.432C1466.97 140.84 1467.99 142.525 1468.68 144.488C1469.36 146.451 1469.66 148.605 1469.57 150.952L1469.51 153.192H1441.67L1440.97 149.16H1465.86L1464.71 150.248V148.712C1464.62 147.176 1464.18 145.704 1463.37 144.296C1462.55 142.845 1461.4 141.672 1459.91 140.776C1458.46 139.88 1456.71 139.432 1454.66 139.432C1452.27 139.432 1450.2 139.923 1448.45 140.904C1446.7 141.843 1445.36 143.251 1444.42 145.128C1443.48 147.005 1443.01 149.331 1443.01 152.104C1443.01 154.749 1443.53 157.053 1444.55 159.016C1445.57 160.936 1447.02 162.429 1448.9 163.496C1450.82 164.563 1453.13 165.096 1455.81 165.096C1457.39 165.096 1458.95 164.84 1460.49 164.328C1462.06 163.773 1463.79 162.707 1465.67 161.128L1468.17 164.584C1467.18 165.565 1466.01 166.44 1464.65 167.208C1463.28 167.933 1461.79 168.531 1460.17 169C1458.54 169.427 1456.88 169.64 1455.17 169.64ZM1476.39 169V135.592H1481.13L1481.32 142.568L1480.55 142.888C1480.98 141.437 1481.81 140.115 1483.05 138.92C1484.28 137.725 1485.76 136.765 1487.46 136.04C1489.21 135.272 1491 134.888 1492.84 134.888C1495.31 134.888 1497.38 135.379 1499.05 136.36C1500.71 137.341 1501.97 138.856 1502.82 140.904C1503.68 142.952 1504.1 145.555 1504.1 148.712V169H1499.24V148.968C1499.24 146.749 1498.94 144.936 1498.34 143.528C1497.79 142.077 1496.91 141.011 1495.72 140.328C1494.52 139.645 1493.05 139.325 1491.3 139.368C1489.85 139.368 1488.51 139.624 1487.27 140.136C1486.03 140.605 1484.97 141.267 1484.07 142.12C1483.17 142.973 1482.47 143.955 1481.96 145.064C1481.45 146.173 1481.19 147.368 1481.19 148.648V169H1478.82C1478.52 169 1478.18 169 1477.8 169C1477.41 169 1476.95 169 1476.39 169ZM1527.35 169.64C1524.19 169.64 1521.37 168.893 1518.9 167.4C1516.42 165.864 1514.46 163.795 1513.01 161.192C1511.6 158.547 1510.9 155.56 1510.9 152.232C1510.9 148.904 1511.6 145.939 1513.01 143.336C1514.46 140.691 1516.42 138.621 1518.9 137.128C1521.37 135.635 1524.21 134.888 1527.41 134.888C1530.27 134.888 1532.87 135.464 1535.22 136.616C1537.56 137.725 1539.44 139.283 1540.85 141.288L1538.03 144.744C1537.22 143.677 1536.24 142.739 1535.09 141.928C1533.98 141.117 1532.76 140.499 1531.44 140.072C1530.16 139.603 1528.88 139.368 1527.6 139.368C1525.34 139.368 1523.31 139.944 1521.52 141.096C1519.73 142.205 1518.3 143.72 1517.23 145.64C1516.21 147.56 1515.7 149.757 1515.7 152.232C1515.7 154.707 1516.21 156.925 1517.23 158.888C1518.3 160.808 1519.73 162.323 1521.52 163.432C1523.31 164.541 1525.32 165.096 1527.54 165.096C1528.82 165.096 1530.08 164.904 1531.31 164.52C1532.55 164.093 1533.72 163.496 1534.83 162.728C1535.94 161.96 1536.97 161 1537.91 159.848L1540.72 163.304C1539.27 165.224 1537.33 166.76 1534.9 167.912C1532.47 169.064 1529.95 169.64 1527.35 169.64ZM1548.23 169V135.592H1553.03V169H1548.23ZM1550.6 128.36C1549.41 128.36 1548.49 128.061 1547.85 127.464C1547.25 126.824 1546.95 125.971 1546.95 124.904C1546.95 123.837 1547.27 122.984 1547.91 122.344C1548.55 121.704 1549.45 121.384 1550.6 121.384C1551.75 121.384 1552.65 121.704 1553.29 122.344C1553.93 122.941 1554.25 123.795 1554.25 124.904C1554.25 125.928 1553.93 126.76 1553.29 127.4C1552.65 128.04 1551.75 128.36 1550.6 128.36ZM1576.57 169.64C1573.67 169.64 1571.05 168.893 1568.7 167.4C1566.35 165.864 1564.5 163.795 1563.13 161.192C1561.77 158.547 1561.08 155.56 1561.08 152.232C1561.08 148.861 1561.79 145.875 1563.2 143.272C1564.6 140.669 1566.48 138.621 1568.83 137.128C1571.22 135.635 1573.88 134.888 1576.83 134.888C1578.58 134.888 1580.2 135.144 1581.69 135.656C1583.19 136.168 1584.51 136.893 1585.66 137.832C1586.85 138.728 1587.84 139.795 1588.6 141.032C1589.41 142.227 1589.97 143.528 1590.27 144.936L1588.86 144.232L1589.05 135.592H1593.85V169H1588.99V160.808L1590.27 159.976C1589.97 161.256 1589.39 162.493 1588.54 163.688C1587.69 164.84 1586.64 165.864 1585.4 166.76C1584.21 167.656 1582.84 168.36 1581.31 168.872C1579.81 169.384 1578.24 169.64 1576.57 169.64ZM1577.66 165.032C1579.88 165.032 1581.86 164.499 1583.61 163.432C1585.36 162.323 1586.73 160.808 1587.71 158.888C1588.73 156.925 1589.24 154.707 1589.24 152.232C1589.24 149.757 1588.73 147.56 1587.71 145.64C1586.73 143.72 1585.36 142.205 1583.61 141.096C1581.86 139.987 1579.88 139.432 1577.66 139.432C1575.4 139.432 1573.39 139.987 1571.64 141.096C1569.94 142.205 1568.57 143.72 1567.55 145.64C1566.57 147.56 1566.08 149.757 1566.08 152.232C1566.08 154.664 1566.57 156.861 1567.55 158.824C1568.53 160.744 1569.89 162.259 1571.64 163.368C1573.39 164.477 1575.4 165.032 1577.66 165.032ZM815.749 249V206.824H820.549V249H815.749ZM808.197 220.2V215.592H828.997V220.2H808.197ZM846.731 249.64C844.171 249.64 841.995 249.128 840.203 248.104C838.453 247.037 837.109 245.501 836.171 243.496C835.275 241.491 834.827 238.995 834.827 236.008V215.592H839.691V235.048C839.691 237.309 839.989 239.208 840.587 240.744C841.227 242.237 842.165 243.368 843.403 244.136C844.683 244.904 846.24 245.288 848.075 245.288C849.483 245.288 850.784 245.053 851.979 244.584C853.173 244.072 854.219 243.389 855.115 242.536C856.011 241.683 856.715 240.68 857.227 239.528C857.739 238.376 857.995 237.16 857.995 235.88V215.592H862.795V249H858.059L857.867 241.96L858.635 241.576C858.123 243.069 857.269 244.435 856.075 245.672C854.88 246.867 853.451 247.827 851.787 248.552C850.165 249.277 848.48 249.64 846.731 249.64ZM883.085 249.64C880.226 249.64 877.666 249.107 875.405 248.04C873.143 246.973 871.351 245.565 870.029 243.816L873.421 240.872C874.658 242.365 876.109 243.496 877.773 244.264C879.479 245.032 881.378 245.416 883.469 245.416C884.535 245.416 885.495 245.309 886.349 245.096C887.202 244.84 887.949 244.477 888.589 244.008C889.229 243.539 889.719 242.984 890.061 242.344C890.402 241.704 890.573 241 890.573 240.232C890.573 238.824 889.954 237.651 888.717 236.712C888.162 236.328 887.373 235.944 886.349 235.56C885.325 235.133 884.087 234.728 882.637 234.344C880.247 233.661 878.263 232.979 876.685 232.296C875.106 231.571 873.869 230.739 872.973 229.8C872.333 229.032 871.842 228.2 871.501 227.304C871.202 226.408 871.053 225.427 871.053 224.36C871.053 222.995 871.33 221.736 871.885 220.584C872.482 219.432 873.293 218.429 874.317 217.576C875.383 216.68 876.621 216.019 878.029 215.592C879.479 215.123 881.037 214.888 882.701 214.888C884.279 214.888 885.837 215.101 887.373 215.528C888.909 215.955 890.338 216.573 891.661 217.384C892.983 218.195 894.114 219.155 895.053 220.264L892.109 223.464C891.298 222.611 890.402 221.843 889.421 221.16C888.439 220.477 887.394 219.944 886.285 219.56C885.218 219.176 884.109 218.984 882.957 218.984C881.933 218.984 880.973 219.112 880.077 219.368C879.223 219.624 878.477 219.987 877.837 220.456C877.239 220.883 876.77 221.416 876.429 222.056C876.13 222.696 875.981 223.4 875.981 224.168C875.981 224.808 876.109 225.384 876.365 225.896C876.621 226.408 876.983 226.856 877.453 227.24C878.05 227.709 878.882 228.157 879.949 228.584C881.058 228.968 882.423 229.373 884.045 229.8C885.922 230.312 887.501 230.845 888.781 231.4C890.103 231.912 891.191 232.531 892.045 233.256C893.197 234.109 894.007 235.091 894.477 236.2C894.989 237.309 895.245 238.568 895.245 239.976C895.245 241.853 894.711 243.517 893.645 244.968C892.621 246.419 891.191 247.571 889.357 248.424C887.522 249.235 885.431 249.64 883.085 249.64ZM930.751 249L916.543 214.888H929.791L937.407 240.36L934.335 240.424L942.015 214.888H955.199L940.287 249H930.751ZM975.709 249.64C972.083 249.64 968.84 248.872 965.981 247.336C963.123 245.8 960.883 243.709 959.261 241.064C957.64 238.419 956.829 235.368 956.829 231.912C956.829 228.456 957.64 225.405 959.261 222.76C960.883 220.115 963.123 218.024 965.981 216.488C968.84 214.952 972.083 214.184 975.709 214.184C979.336 214.184 982.557 214.952 985.373 216.488C988.232 218.024 990.472 220.115 992.093 222.76C993.715 225.405 994.525 228.456 994.525 231.912C994.525 235.368 993.715 238.419 992.093 241.064C990.472 243.709 988.232 245.8 985.373 247.336C982.557 248.872 979.336 249.64 975.709 249.64ZM975.709 239.592C976.989 239.592 978.141 239.272 979.165 238.632C980.232 237.949 981.043 237.032 981.597 235.88C982.195 234.685 982.493 233.363 982.493 231.912C982.493 230.376 982.195 229.032 981.597 227.88C981.043 226.728 980.232 225.832 979.165 225.192C978.141 224.509 976.989 224.168 975.709 224.168C974.387 224.168 973.213 224.509 972.189 225.192C971.165 225.832 970.355 226.749 969.757 227.944C969.16 229.096 968.861 230.419 968.861 231.912C968.861 233.363 969.16 234.685 969.757 235.88C970.355 237.032 971.165 237.949 972.189 238.632C973.213 239.272 974.387 239.592 975.709 239.592ZM1003.25 249V206.248H1015.16V249H1003.25ZM997.619 225V214.888H1021.11V225H997.619ZM1043.08 249.64C1039.46 249.64 1036.21 248.872 1033.36 247.336C1030.5 245.8 1028.26 243.709 1026.64 241.064C1025.01 238.419 1024.2 235.368 1024.2 231.912C1024.2 228.456 1025.01 225.405 1026.64 222.76C1028.26 220.115 1030.5 218.024 1033.36 216.488C1036.21 214.952 1039.46 214.184 1043.08 214.184C1046.71 214.184 1049.93 214.952 1052.75 216.488C1055.61 218.024 1057.85 220.115 1059.47 222.76C1061.09 225.405 1061.9 228.456 1061.9 231.912C1061.9 235.368 1061.09 238.419 1059.47 241.064C1057.85 243.709 1055.61 245.8 1052.75 247.336C1049.93 248.872 1046.71 249.64 1043.08 249.64ZM1043.08 239.592C1044.36 239.592 1045.52 239.272 1046.54 238.632C1047.61 237.949 1048.42 237.032 1048.97 235.88C1049.57 234.685 1049.87 233.363 1049.87 231.912C1049.87 230.376 1049.57 229.032 1048.97 227.88C1048.42 226.728 1047.61 225.832 1046.54 225.192C1045.52 224.509 1044.36 224.168 1043.08 224.168C1041.76 224.168 1040.59 224.509 1039.56 225.192C1038.54 225.832 1037.73 226.749 1037.13 227.944C1036.53 229.096 1036.24 230.419 1036.24 231.912C1036.24 233.363 1036.53 234.685 1037.13 235.88C1037.73 237.032 1038.54 237.949 1039.56 238.632C1040.59 239.272 1041.76 239.592 1043.08 239.592ZM1080.03 249.64C1076.49 249.64 1073.38 249.085 1070.69 247.976C1068 246.867 1065.91 245.437 1064.42 243.688L1071.39 237.672C1072.76 238.909 1074.3 239.827 1076 240.424C1077.75 241.021 1079.29 241.32 1080.61 241.32C1081.08 241.32 1081.51 241.277 1081.89 241.192C1082.27 241.107 1082.57 240.979 1082.79 240.808C1083.04 240.595 1083.23 240.381 1083.36 240.168C1083.53 239.912 1083.62 239.635 1083.62 239.336C1083.62 238.611 1083.26 238.056 1082.53 237.672C1082.15 237.501 1081.51 237.288 1080.61 237.032C1079.76 236.733 1078.6 236.413 1077.15 236.072C1075.36 235.603 1073.76 235.048 1072.35 234.408C1070.95 233.725 1069.75 232.936 1068.77 232.04C1067.83 231.144 1067.08 230.12 1066.53 228.968C1066.02 227.773 1065.76 226.472 1065.76 225.064C1065.76 223.357 1066.15 221.843 1066.91 220.52C1067.68 219.197 1068.75 218.067 1070.11 217.128C1071.48 216.147 1073.02 215.421 1074.72 214.952C1076.43 214.44 1078.18 214.184 1079.97 214.184C1081.98 214.184 1083.85 214.397 1085.6 214.824C1087.39 215.208 1089.06 215.784 1090.59 216.552C1092.17 217.277 1093.58 218.173 1094.82 219.24L1088.67 226.024C1087.95 225.384 1087.1 224.787 1086.11 224.232C1085.18 223.677 1084.19 223.229 1083.17 222.888C1082.15 222.504 1081.19 222.312 1080.29 222.312C1079.74 222.312 1079.27 222.355 1078.88 222.44C1078.5 222.525 1078.18 222.653 1077.92 222.824C1077.67 222.995 1077.47 223.208 1077.35 223.464C1077.22 223.72 1077.15 223.997 1077.15 224.296C1077.15 224.68 1077.26 225.043 1077.47 225.384C1077.69 225.725 1078.03 226.003 1078.5 226.216C1078.88 226.429 1079.52 226.707 1080.42 227.048C1081.36 227.347 1082.7 227.731 1084.45 228.2C1086.41 228.755 1088.12 229.395 1089.57 230.12C1091.02 230.845 1092.19 231.677 1093.09 232.616C1093.73 233.341 1094.22 234.152 1094.56 235.048C1094.9 235.901 1095.07 236.861 1095.07 237.928C1095.07 240.189 1094.41 242.216 1093.09 244.008C1091.81 245.757 1090.04 247.144 1087.78 248.168C1085.52 249.149 1082.94 249.64 1080.03 249.64ZM1102.5 233.576C1102.2 230.888 1101.96 228.115 1101.79 225.256C1101.62 222.355 1101.49 219.496 1101.41 216.68C1101.32 213.864 1101.28 211.197 1101.28 208.68V204.2H1106.46V208.68C1106.46 211.325 1106.42 214.099 1106.34 217C1106.25 219.901 1106.1 222.781 1105.89 225.64C1105.72 228.456 1105.48 231.101 1105.18 233.576H1102.5ZM1103.65 249.64C1102.5 249.64 1101.6 249.299 1100.96 248.616C1100.36 247.933 1100.06 246.952 1100.06 245.672C1100.06 244.52 1100.38 243.581 1101.02 242.856C1101.71 242.088 1102.58 241.704 1103.65 241.704C1104.8 241.704 1105.67 242.067 1106.27 242.792C1106.91 243.475 1107.23 244.435 1107.23 245.672C1107.23 246.867 1106.89 247.827 1106.21 248.552C1105.57 249.277 1104.71 249.64 1103.65 249.64Z" fill="white"/>
</g>
<defs>
<filter id="filter0_d_2_16" x="301.297" y="40.424" width="1314.24" height="217.216" filterUnits="userSpaceOnUse" color-interpolation-filters="sRGB">
<feFlood flood-opacity="0" result="BackgroundImageFix"/>
<feColorMatrix in="SourceAlpha" type="matrix" values="0 0 0 0 0 0 0 0 0 0 0 0 0 0 0 0 0 0 127 0" result="hardAlpha"/>
<feOffset dy="4"/>
<feGaussianBlur stdDeviation="2"/>
<feComposite in2="hardAlpha" operator="out"/>
<feColorMatrix type="matrix" values="0 0 0 0 0 0 0 0 0 0 0 0 0 0 0 0 0 0 0.25 0"/>
<feBlend mode="normal" in2="BackgroundImageFix" result="effect1_dropShadow_2_16"/>
<feBlend mode="normal" in="SourceGraphic" in2="effect1_dropShadow_2_16" result="shape"/>
</filter>
</defs>
</svg>
